<svg width="43" height="43" viewBox="0 0 43 43" fill="none" xmlns="http://www.w3.org/2000/svg">
<path fill-rule="evenodd" clip-rule="evenodd" d="M0 0V43H43V0H0ZM15.2798 32.3853C9.21514 32.3853 4.39451 27.5646 4.39451 21.5C4.39451 15.4354 9.21514 10.6147 15.2798 10.6147C18.2345 10.6147 20.7225 11.7032 22.5885 13.5693L19.6339 16.3684C18.8564 15.5909 17.4569 14.6578 15.2797 14.6578C11.5477 14.6578 8.5931 17.7679 8.5931 21.5C8.5931 25.2321 11.5477 28.3422 15.2797 28.3422C19.6339 28.3422 21.1889 25.2321 21.4999 23.677H15.2797V19.9449H25.543C25.6986 20.5669 25.6986 21.0334 25.6986 21.811C25.6987 28.0312 21.5 32.3853 15.2798 32.3853ZM38.6055 23.0551H35.4954V26.1652H32.3852V23.0551H29.2752V19.945H32.3852V16.8349H35.4954V19.945H38.6055V23.0551Z" fill="white"/>
</svg>
