<svg width="38" height="35" viewBox="0 0 38 35" fill="none" xmlns="http://www.w3.org/2000/svg">
<path d="M29.1371 0H7.87795C5.74901 0 4.0202 1.72882 4.0202 3.85775V21.4554L1.58173 19.017C1.21936 18.6546 0.638057 18.6546 0.275685 19.017C-0.0866867 19.3794 -0.0866867 19.9607 0.275685 20.323L4.29952 24.3469C4.48071 24.5281 4.71474 24.6187 4.95632 24.6187C5.1979 24.6187 5.43194 24.5281 5.61312 24.3469L9.63696 20.323C9.99933 19.9607 9.99933 19.3794 9.63696 19.017C9.27459 18.6546 8.69328 18.6546 8.33091 19.017L5.8849 21.463V3.85775C5.8849 2.74799 6.78328 1.84961 7.89305 1.84961H29.1447C30.2544 1.84961 31.1528 2.74799 31.1528 3.85775V6.42455C31.1528 6.93792 31.568 7.35313 32.0814 7.35313C32.5947 7.35313 33.01 6.93792 33.01 6.42455V3.85775C32.9873 1.73637 31.2585 0 29.1371 0Z" fill="black"/>
<path d="M31.4098 10.5183L27.386 14.5421C27.0236 14.9045 27.0236 15.4858 27.386 15.8482C27.5672 16.0293 27.8012 16.1199 28.0428 16.1199C28.2844 16.1199 28.5184 16.0293 28.6996 15.8482L31.1456 13.4021V30.9998C31.1456 32.1096 30.2472 33.008 29.1375 33.008H7.8783C6.76854 33.008 5.87016 32.1096 5.87016 30.9998V28.433C5.87016 27.9197 5.45494 27.5045 4.94158 27.5045C4.42822 27.5045 4.013 27.9197 4.013 28.433V30.9998C4.013 33.1288 5.74182 34.8576 7.87075 34.8576H29.1224C31.2513 34.8576 32.9801 33.1288 32.9801 30.9998V13.4021L35.4261 15.8482C35.7885 16.2105 36.3698 16.2105 36.7322 15.8482C37.0945 15.4858 37.0945 14.9045 36.7322 14.5421L32.7083 10.5183C32.3762 10.171 31.7571 10.171 31.4098 10.5183Z" fill="black"/>
<path d="M18.5078 9.25C17.9945 9.25 17.5792 9.66522 17.5792 10.1786V11.5979H17.4585C15.6919 11.5979 14.25 13.1153 14.25 14.9725C14.25 16.8296 15.6919 18.347 17.4585 18.347H19.5421C20.2895 18.347 20.901 19.034 20.901 19.872C20.901 20.7176 20.2895 21.397 19.5421 21.397H15.7976C15.2842 21.397 14.869 21.8122 14.869 22.3256C14.869 22.839 15.2842 23.2542 15.7976 23.2542H17.5792V24.6961C17.5792 25.2095 17.9945 25.6247 18.5078 25.6247C19.0212 25.6247 19.4364 25.2095 19.4364 24.6961V23.2466H19.5723C19.5798 23.2466 19.5874 23.2466 19.5949 23.2466C21.3464 23.224 22.7581 21.7141 22.7581 19.872C22.7581 18.0073 21.3162 16.4974 19.5496 16.4974H17.466C16.7186 16.4974 16.1071 15.8104 16.1071 14.9725C16.1071 14.1345 16.7186 13.4475 17.466 13.4475H21.1426C21.6559 13.4475 22.0711 13.0323 22.0711 12.5189C22.0711 12.0055 21.6559 11.5903 21.1426 11.5903H19.4364V10.171C19.4289 9.66522 19.0212 9.25 18.5078 9.25Z" fill="black"/>
</svg>
