<svg width="25" height="24" viewBox="0 0 25 24" fill="none" xmlns="http://www.w3.org/2000/svg">
<path d="M23.531 23.0089H1.46348C1.20771 23.0081 0.956577 22.9405 0.734875 22.813C0.513173 22.6854 0.328567 22.5023 0.199282 22.2816C0.0695093 22.0604 0.000743876 21.8088 6.00139e-06 21.5524C-0.000731873 21.296 0.0665842 21.044 0.195082 20.8221L11.2355 1.71698C11.3628 1.49526 11.5465 1.3111 11.7679 1.18315C11.9892 1.05519 12.2405 0.987967 12.4962 0.988282C13.0163 0.988282 13.5007 1.26758 13.7597 1.71768L24.77 20.7745C24.908 20.9956 24.9843 21.2497 24.9911 21.5102C24.9978 21.7708 24.9347 22.0285 24.8083 22.2564C24.6819 22.4844 24.4968 22.6744 24.2722 22.8067C24.0476 22.939 23.7917 23.0088 23.531 23.0089ZM12.4591 2.41698H12.4472L1.40888 21.5193L1.46348 21.6096H23.531C23.5618 21.6096 23.5919 21.5795 23.5919 21.5494C23.587 21.5417 23.5625 21.4822 23.5576 21.4745L12.5466 2.41698H12.4591Z" fill="black"/>
<path d="M11.8164 8.88324V14.9739C11.825 15.1789 11.9125 15.3726 12.0605 15.5145C12.2086 15.6565 12.4058 15.7358 12.6109 15.7358C12.816 15.7358 13.0132 15.6565 13.1613 15.5145C13.3093 15.3726 13.3968 15.1789 13.4054 14.9739V8.88324C13.4052 8.67232 13.3215 8.47006 13.1727 8.32065C13.0238 8.17125 12.8218 8.08686 12.6109 8.08594C12.1748 8.08594 11.8164 8.44504 11.8164 8.88324Z" fill="black"/>
<path d="M12.6109 16.8281C12.1741 16.8281 11.8164 17.1823 11.8164 17.6205V18.1532C11.8179 18.3633 11.9021 18.5643 12.0509 18.7126C12.1996 18.861 12.4008 18.9447 12.6109 18.9456C13.0491 18.9456 13.4054 18.5865 13.4054 18.1532V17.6205C13.4054 17.1823 13.0484 16.8281 12.6109 16.8281Z" fill="black"/>
</svg>
