<svg width="32" height="32" viewBox="0 0 32 32" fill="none" xmlns="http://www.w3.org/2000/svg">
<path fill-rule="evenodd" clip-rule="evenodd" d="M16 0C7.168 0 0 7.168 0 16C0 24.832 7.168 32 16 32C24.832 32 32 24.832 32 16C32 7.168 24.832 0 16 0ZM15.0857 6.4001H6.85714C6.7359 6.4001 6.61963 6.44826 6.53389 6.53399C6.44816 6.61972 6.4 6.736 6.4 6.85724V12.8001C6.4 12.9213 6.44816 13.0376 6.53389 13.1233C6.61963 13.2091 6.7359 13.2572 6.85714 13.2572H15.0857C15.207 13.2572 15.3232 13.2091 15.409 13.1233C15.4947 13.0376 15.5429 12.9213 15.5429 12.8001V6.85724C15.5429 6.736 15.4947 6.61972 15.409 6.53399C15.3232 6.44826 15.207 6.4001 15.0857 6.4001ZM6.85675 14.1712H15.0853C15.2066 14.1712 15.3228 14.2194 15.4086 14.3051C15.4943 14.3908 15.5425 14.5071 15.5425 14.6283V25.1426C15.5425 25.2639 15.4943 25.3801 15.4086 25.4659C15.3228 25.5516 15.2066 25.5998 15.0853 25.5998H6.85675C6.73551 25.5998 6.61923 25.5516 6.5335 25.4659C6.44777 25.3801 6.39961 25.2639 6.39961 25.1426V14.6283C6.39961 14.5071 6.44777 14.3908 6.5335 14.3051C6.61923 14.2194 6.73551 14.1712 6.85675 14.1712ZM25.1431 18.7427H16.9146C16.7933 18.7427 16.677 18.7908 16.5913 18.8766C16.5056 18.9623 16.4574 19.0786 16.4574 19.1998V25.1427C16.4574 25.2639 16.5056 25.3802 16.5913 25.4659C16.677 25.5517 16.7933 25.5998 16.9146 25.5998H25.1431C25.2644 25.5998 25.3807 25.5517 25.4664 25.4659C25.5521 25.3802 25.6003 25.2639 25.6003 25.1427V19.1998C25.6003 19.0786 25.5521 18.9623 25.4664 18.8766C25.3807 18.7908 25.2644 18.7427 25.1431 18.7427ZM16.9146 6.4001H25.1431C25.2644 6.4001 25.3807 6.44826 25.4664 6.53399C25.5521 6.61972 25.6003 6.736 25.6003 6.85724V17.3715C25.6003 17.4928 25.5521 17.609 25.4664 17.6948C25.3807 17.7805 25.2644 17.8287 25.1431 17.8287H16.9146C16.7933 17.8287 16.677 17.7805 16.5913 17.6948C16.5056 17.609 16.4574 17.4928 16.4574 17.3715V6.85724C16.4574 6.736 16.5056 6.61972 16.5913 6.53399C16.677 6.44826 16.7933 6.4001 16.9146 6.4001Z" fill="black"/>
</svg>
