<svg width="16" height="17" viewBox="0 0 16 17" fill="none" xmlns="http://www.w3.org/2000/svg">
<g clip-path="url(#clip0)">
<path d="M7.97344 15.1453H1.99334C1.62656 15.1453 1.32891 14.8476 1.32891 14.4809V2.52072C1.32891 2.15394 1.62659 1.85628 1.99334 1.85628H7.97344C8.34087 1.85628 8.63787 1.55928 8.63787 1.19184C8.63787 0.824406 8.34087 0.527344 7.97344 0.527344H1.99334C0.894344 0.527344 0 1.42172 0 2.52072V14.4808C0 15.5798 0.894344 16.4742 1.99334 16.4742H7.97344C8.34087 16.4742 8.63787 16.1772 8.63787 15.8097C8.63787 15.4423 8.34087 15.1453 7.97344 15.1453Z" fill="black"/>
<path d="M15.8028 8.02762L11.7629 4.0409C11.5024 3.78309 11.0812 3.78643 10.8234 4.04756C10.5656 4.30868 10.5682 4.72928 10.83 4.98709L13.7171 7.83624H5.98084C5.61341 7.83624 5.31641 8.13324 5.31641 8.50068C5.31641 8.86812 5.61341 9.16515 5.98084 9.16515H13.7171L10.83 12.0143C10.5682 12.2721 10.5662 12.6927 10.8234 12.9538C10.9536 13.0854 11.125 13.1518 11.2965 13.1518C11.4652 13.1518 11.634 13.0881 11.7629 12.9605L15.8028 8.97374C15.929 8.84884 16.0008 8.67871 16.0008 8.50065C16.0008 8.32265 15.9297 8.15321 15.8028 8.02762Z" fill="black"/>
</g>
<defs>
<clipPath id="clip0">
<rect y="0.5" width="16" height="16" fill="white"/>
</clipPath>
</defs>
</svg>
