<svg width="23" height="22" viewBox="0 0 23 22" fill="none" xmlns="http://www.w3.org/2000/svg">
<path d="M18.1099 0.0585938H4.8947C3.5713 0.0585938 2.49663 1.13327 2.49663 2.45667V13.3958L0.980817 11.88C0.755558 11.6548 0.394204 11.6548 0.168945 11.88C-0.0563149 12.1053 -0.0563149 12.4666 0.168945 12.6919L2.67026 15.1932C2.78289 15.3058 2.92837 15.3622 3.07855 15.3622C3.22872 15.3622 3.3742 15.3058 3.48683 15.1932L5.98815 12.6919C6.21341 12.4666 6.21341 12.1053 5.98815 11.88C5.76289 11.6548 5.40153 11.6548 5.17627 11.88L3.65577 13.4005V2.45667C3.65577 1.76681 4.21423 1.20836 4.90409 1.20836H18.1146C18.8045 1.20836 19.3629 1.76681 19.3629 2.45667V4.05226C19.3629 4.37137 19.621 4.62948 19.9402 4.62948C20.2593 4.62948 20.5174 4.37137 20.5174 4.05226V2.45667C20.5033 1.13796 19.4286 0.0585938 18.1099 0.0585938Z" fill="black"/>
<path d="M19.5227 6.5955L17.0214 9.09682C16.7962 9.32208 16.7962 9.68343 17.0214 9.90869C17.1341 10.0213 17.2795 10.0776 17.4297 10.0776C17.5799 10.0776 17.7254 10.0213 17.838 9.90869L19.3585 8.38819V19.3274C19.3585 20.0172 18.8 20.5757 18.1102 20.5757H4.89496C4.2051 20.5757 3.64664 20.0172 3.64664 19.3274V17.7318C3.64664 17.4126 3.38853 17.1545 3.06941 17.1545C2.7503 17.1545 2.49219 17.4126 2.49219 17.7318V19.3274C2.49219 20.6508 3.56686 21.7254 4.89026 21.7254H18.1008C19.4242 21.7254 20.4989 20.6508 20.4989 19.3274V8.38819L22.0194 9.90869C22.2446 10.1339 22.606 10.1339 22.8312 9.90869C23.0565 9.68343 23.0565 9.32208 22.8312 9.09682L20.3299 6.5955C20.1234 6.37963 19.7386 6.37963 19.5227 6.5955Z" fill="black"/>
<path d="M11.5023 5.80859C11.1831 5.80859 10.925 6.0667 10.925 6.38582V7.26809H10.85C9.75181 7.26809 8.85547 8.21136 8.85547 9.36582C8.85547 10.5203 9.75181 11.4635 10.85 11.4635H12.1452C12.6098 11.4635 12.9899 11.8906 12.9899 12.4115C12.9899 12.9371 12.6098 13.3595 12.1452 13.3595H9.81751C9.4984 13.3595 9.24029 13.6176 9.24029 13.9367C9.24029 14.2558 9.4984 14.5139 9.81751 14.5139H10.925V15.4103C10.925 15.7294 11.1831 15.9875 11.5023 15.9875C11.8214 15.9875 12.0795 15.7294 12.0795 15.4103V14.5092H12.164C12.1687 14.5092 12.1734 14.5092 12.178 14.5092C13.2668 14.4952 14.1444 13.5566 14.1444 12.4115C14.1444 11.2524 13.248 10.3138 12.1499 10.3138H10.8546C10.39 10.3138 10.0099 9.88673 10.0099 9.36582C10.0099 8.8449 10.39 8.41785 10.8546 8.41785H13.1401C13.4592 8.41785 13.7173 8.15974 13.7173 7.84062C13.7173 7.5215 13.4592 7.26339 13.1401 7.26339H12.0795V6.38113C12.0748 6.0667 11.8214 5.80859 11.5023 5.80859Z" fill="black"/>
</svg>
