<svg width="29" height="24" viewBox="0 0 29 24" fill="none" xmlns="http://www.w3.org/2000/svg">
<path d="M3.43871 12.6823C3.39516 12.6387 3.35161 12.6387 3.30806 12.5952L1.13065 10.4178C0.956452 10.2436 0.956452 9.98229 1.13065 9.8081C1.30484 9.6339 1.56613 9.6339 1.74032 9.8081L3.22097 11.2887C3.74355 5.49681 8.57742 0.967773 14.5 0.967773C19.8565 0.967773 24.5161 4.75648 25.6048 10.0258C25.6484 10.2436 25.5177 10.5049 25.2565 10.5484C25.0387 10.592 24.7774 10.4613 24.7339 10.2C23.7323 5.36616 19.421 1.83874 14.5 1.83874C9.1 1.83874 4.65807 5.93229 4.09194 11.1581L5.48548 9.76455C5.65968 9.59035 5.92097 9.59035 6.09516 9.76455C6.26936 9.93874 6.26936 10.2 6.09516 10.3742L3.91774 12.5516C3.87419 12.5952 3.83065 12.6387 3.7871 12.6387C3.74355 12.7258 3.65645 12.7258 3.6129 12.7258C3.56936 12.7258 3.48226 12.7258 3.43871 12.6823ZM27.8694 14.7726C27.7823 14.8597 27.6952 14.9033 27.5645 14.9033C27.4339 14.9033 27.3468 14.8597 27.2597 14.7726L25.779 13.292C25.2565 19.0839 20.4226 23.6129 14.5 23.6129C9.14355 23.6129 4.48387 19.8242 3.39516 14.5549C3.35161 14.3371 3.48226 14.0758 3.74355 14.0323C3.96129 13.9887 4.22258 14.1194 4.26613 14.3807C5.26774 19.2145 9.57903 22.742 14.5 22.742C19.9 22.742 24.3419 18.6484 24.9081 13.4226L23.5145 14.8162C23.3403 14.9904 23.079 14.9904 22.9048 14.8162C22.7306 14.642 22.7306 14.3807 22.9048 14.2065L25.0823 12.0291C25.1258 11.9855 25.1694 11.942 25.2129 11.942C25.3 11.8984 25.4306 11.8984 25.5613 11.942C25.6048 11.9855 25.6484 11.9855 25.6919 12.0291L27.8694 14.2065C28.0435 14.3371 28.0435 14.5984 27.8694 14.7726Z" fill="#FFCC00" stroke="#FFCC00" stroke-width="0.5"/>
<path d="M17.4814 12.0059C18.2042 11.6381 18.656 10.9902 18.5499 9.91162C18.4074 8.43713 17.1321 7.94347 15.5223 7.80338L15.5216 6.02117C15.5219 6.01546 15.5249 6.01054 15.5249 6.00464C15.5249 5.86868 15.4145 5.75869 15.2783 5.7585H14.5268C14.4614 5.75855 14.3988 5.78448 14.3527 5.8306C14.3065 5.87672 14.2806 5.93925 14.2806 6.00444H14.2748L14.2758 7.75006C13.9478 7.75006 13.6128 7.75655 13.28 7.76344L13.2795 6.02609C13.28 6.01861 13.2838 6.01212 13.2838 6.00444C13.2838 5.86848 13.1734 5.7585 13.0372 5.7583H12.2856C12.2203 5.75835 12.1577 5.78429 12.1115 5.83041C12.0654 5.87652 12.0395 5.93905 12.0395 6.00425L12.0396 6.00484H12.0335L12.0339 7.80377C11.7639 7.80928 11.4988 7.81499 11.2402 7.81499L11.24 7.8085H9.52002V7.81105C9.48763 7.81103 9.45555 7.81738 9.42563 7.82974C9.3957 7.8421 9.3685 7.86023 9.3456 7.88309C9.3227 7.90595 9.30454 7.93309 9.29215 7.96297C9.27977 7.99284 9.27341 8.02486 9.27344 8.05719V8.88868C9.27344 9.02464 9.38382 9.13483 9.52002 9.13483L9.521 9.13463V9.13837C9.521 9.13837 10.4419 9.12046 10.4265 9.13679C10.9315 9.13699 11.0961 9.42957 11.144 9.682L11.145 12.0122L11.1452 12.021L11.1462 15.2846C11.1241 15.4432 11.0307 15.6964 10.6778 15.697C10.6938 15.711 9.77133 15.6968 9.77133 15.6968L9.77113 15.698C9.76956 15.698 9.76838 15.697 9.7668 15.697C9.64834 15.697 9.55412 15.782 9.53027 15.8932L9.52022 15.8926L9.29315 16.9096L9.29847 16.9106C9.29748 16.9197 9.29315 16.9275 9.29315 16.937C9.29315 17.0676 9.39604 17.1721 9.52495 17.1802L9.52436 17.1839L11.1471 17.1833C11.4491 17.1833 11.7464 17.1882 12.0381 17.19L12.0395 19.0124H12.04C12.04 19.1481 12.1504 19.2583 12.2866 19.2583H13.0382C13.1035 19.2582 13.1661 19.2322 13.2123 19.1861C13.2585 19.1399 13.2844 19.0774 13.2844 19.0122H13.2848L13.284 17.212C13.626 17.2189 13.9569 17.2215 14.2802 17.2207L14.2806 19.0124H14.2812C14.2814 19.1481 14.3915 19.2583 14.5275 19.2583H15.2791C15.3444 19.2582 15.4071 19.2322 15.4532 19.1861C15.4994 19.1399 15.5253 19.0774 15.5253 19.0122V19.012H15.5269L15.5265 17.1926C17.6227 17.0716 19.09 16.5439 19.2713 14.5785C19.4176 12.9964 18.6715 12.2904 17.4814 12.0059ZM13.3096 9.22671C14.0135 9.22632 16.2246 9.00202 16.2254 10.4686C16.2256 11.875 14.0143 11.7117 13.3104 11.7121L13.3096 9.22671ZM13.3118 15.7069L13.3112 12.9663C14.1564 12.9663 16.8065 12.7227 16.8071 14.3347C16.8083 15.8804 14.157 15.7055 13.3118 15.7069Z" fill="#FFCC00"/>
</svg>
