<svg width="29" height="34" viewBox="0 0 29 34" fill="none" xmlns="http://www.w3.org/2000/svg">
<path fill-rule="evenodd" clip-rule="evenodd" d="M29 1.003V1C29 0.828 28.956 0.656001 28.868 0.502001C28.689 0.191001 28.358 0 28 0H27H25H20H18H15H13H8C7.645 0 7.315 0.189 7.136 0.496L0.136002 12.496C0.122002 12.52 0.116 12.548 0.104 12.573C0.0910001 12.6 0.0799997 12.627 0.0699997 12.655C0.0279997 12.767 0 12.882 0 12.999V33C0 33.552 0.448 34 1 34H21C21.368 34 21.676 33.792 21.85 33.496L21.864 33.504L28.864 21.504C28.953 21.351 29 21.177 29 21V1.003ZM26.259 2H8.574L2.741 12H20.426L26.259 2ZM2 32H20V14H2V32ZM22 13.27V29.301L27 20.73V4.699L22 13.27Z" fill="#FFCC00"/>
<path d="M5.402 27.184L4.293 28.293L5.707 29.707L6.816 28.598C7.985 29.474 9.43 30 11 30C12.57 30 14.015 29.474 15.184 28.598L16.292 29.706L17.706 28.292L16.598 27.184C17.474 26.015 18 24.57 18 23C18 21.43 17.474 19.985 16.598 18.816L17.707 17.707L16.293 16.293L15.184 17.402C14.015 16.526 12.57 16 11 16C9.43 16 7.985 16.526 6.816 17.402L5.707 16.293L4.293 17.707L5.402 18.816C4.526 19.985 4 21.43 4 23C4 24.57 4.526 26.015 5.402 27.184ZM6 23C6 21.983 6.309 21.038 6.833 20.247L8.301 21.715C8.113 22.106 8 22.538 8 23C8 23.462 8.113 23.894 8.301 24.285L6.833 25.753C6.309 24.962 6 24.017 6 23ZM10.613 22.078C10.732 22.028 10.863 22 11 22C11.335 22 11.618 22.177 11.8 22.431C11.843 22.491 11.894 22.546 11.922 22.613C11.972 22.732 12 22.863 12 23C12 23.137 11.972 23.268 11.922 23.387C11.894 23.454 11.843 23.509 11.8 23.569C11.618 23.823 11.335 24 11 24C10.863 24 10.732 23.972 10.613 23.922C10.546 23.894 10.491 23.843 10.431 23.8C10.177 23.618 10 23.335 10 23C10 22.665 10.177 22.382 10.431 22.2C10.491 22.158 10.546 22.107 10.613 22.078ZM11 28C9.983 28 9.038 27.691 8.247 27.167L9.706 25.708C9.728 25.719 9.754 25.722 9.777 25.733C9.893 25.785 10.017 25.822 10.14 25.859C10.216 25.882 10.288 25.913 10.366 25.929C10.571 25.974 10.782 26 11 26C11.462 26 11.894 25.887 12.285 25.699L13.753 27.167C12.962 27.691 12.017 28 11 28ZM16 23C16 24.017 15.691 24.962 15.167 25.753L13.708 24.294C13.719 24.272 13.722 24.246 13.732 24.224C13.785 24.107 13.821 23.984 13.859 23.86C13.882 23.784 13.913 23.712 13.929 23.634C13.974 23.429 14 23.218 14 23C14 22.782 13.974 22.571 13.93 22.366C13.913 22.288 13.883 22.216 13.86 22.141C13.823 22.017 13.786 21.893 13.733 21.776C13.723 21.753 13.719 21.728 13.709 21.706L15.168 20.247C15.691 21.038 16 21.983 16 23ZM11 18C12.017 18 12.962 18.309 13.753 18.833L12.285 20.301C11.894 20.113 11.462 20 11 20C10.782 20 10.571 20.026 10.366 20.07C10.288 20.087 10.216 20.118 10.14 20.14C10.016 20.177 9.892 20.214 9.776 20.267C9.753 20.277 9.728 20.281 9.706 20.291L8.247 18.832C9.038 18.309 9.983 18 11 18Z" fill="#FFCC00"/>
</svg>
