<svg width="12" height="13" viewBox="0 0 12 13" fill="none" xmlns="http://www.w3.org/2000/svg">
<path d="M10.5039 5.5H9.44141V2C9.44141 0.895313 8.54609 0 7.44141 0H3.56641C2.46172 0 1.56641 0.895313 1.56641 2V5.5H0.503906C0.227344 5.5 0.00390625 5.72344 0.00390625 6V12C0.00390625 12.2766 0.227344 12.5 0.503906 12.5H10.5039C10.7805 12.5 11.0039 12.2766 11.0039 12V6C11.0039 5.72344 10.7805 5.5 10.5039 5.5ZM5.94141 9.20312V10.0312C5.94141 10.1 5.88516 10.1562 5.81641 10.1562H5.19141C5.12266 10.1562 5.06641 10.1 5.06641 10.0312V9.20312C4.93743 9.11052 4.84116 8.97938 4.79145 8.82859C4.74175 8.67779 4.74117 8.51511 4.78981 8.36396C4.83845 8.21281 4.9338 8.081 5.06212 7.98749C5.19044 7.89398 5.34513 7.8436 5.50391 7.8436C5.66269 7.8436 5.81737 7.89398 5.94569 7.98749C6.07402 8.081 6.16936 8.21281 6.218 8.36396C6.26664 8.51511 6.26606 8.67779 6.21636 8.82859C6.16666 8.97938 6.07039 9.11052 5.94141 9.20312ZM8.31641 5.5H2.69141V2C2.69141 1.51719 3.08359 1.125 3.56641 1.125H7.44141C7.92422 1.125 8.31641 1.51719 8.31641 2V5.5Z" fill="black"/>
</svg>
