<svg width="20" height="20" viewBox="0 0 20 20" fill="none" xmlns="http://www.w3.org/2000/svg">
<path fill-rule="evenodd" clip-rule="evenodd" d="M0 10C0 4.48 4.48 0 10 0C15.52 0 20 4.48 20 10C20 15.52 15.52 20 10 20C4.48 20 0 15.52 0 10ZM16 6.20833C16 7.9674 12.9086 8.91667 10 8.91667C7.09136 8.91667 4 7.9674 4 6.20833C4 4.44927 7.09136 3.5 10 3.5C12.9086 3.5 16 4.44927 16 6.20833ZM15.4545 7.83298C15.1535 7.83298 14.9091 8.07565 14.9091 8.37465C14.9091 9.03711 12.9967 9.99965 10 9.99965C7.00327 9.99965 5.09091 9.03711 5.09091 8.37465C5.09091 8.07565 4.84655 7.83298 4.54545 7.83298C4.24436 7.83298 4 8.07565 4 8.37465V9.99965C4 11.7587 7.09136 12.708 10 12.708C12.9086 12.708 16 11.7587 16 9.99965V8.37465C16 8.07565 15.7556 7.83298 15.4545 7.83298ZM14.9091 12.1665C14.9091 11.8675 15.1535 11.6248 15.4545 11.6248C15.7556 11.6248 16 11.8675 16 12.1665V13.7915C16 15.5506 12.9086 16.4998 10 16.4998C7.09136 16.4998 4 15.5506 4 13.7915V12.1665C4 11.8675 4.24436 11.6248 4.54545 11.6248C4.84655 11.6248 5.09091 11.8675 5.09091 12.1665C5.09091 12.8289 7.00327 13.7915 10 13.7915C12.9967 13.7915 14.9091 12.8289 14.9091 12.1665Z" fill="#FFCC00"/>
</svg>
