<svg width="32" height="32" viewBox="0 0 32 32" fill="none" xmlns="http://www.w3.org/2000/svg">
<path d="M26.0302 20.338C24.1776 20.338 22.5435 21.2207 21.4758 22.5723L11.5733 17.5081C11.703 17.0246 11.7961 16.525 11.7961 15.9993C11.7961 15.4269 11.6855 14.888 11.5311 14.3636L21.3899 9.32286C22.4517 10.7356 24.128 11.6591 26.0316 11.6591C29.2563 11.6591 31.8648 9.05055 31.8648 5.82882C31.8648 2.60999 29.2563 0 26.0317 0C22.8144 0 20.203 2.60999 20.203 5.82875C20.203 6.35602 20.2962 6.85702 20.4273 7.34201L10.5262 12.4062C9.45711 11.0531 7.82002 10.1676 5.96449 10.1676C2.74277 10.1676 0.135742 12.779 0.135742 15.9993C0.135742 19.2195 2.74283 21.8295 5.96449 21.8295C7.871 21.8295 9.54597 20.9032 10.612 19.489L20.4665 24.5298C20.3121 25.0526 20.2 25.5959 20.2 26.1698C20.2 29.39 22.8114 32 26.0287 32C29.2534 32 31.8619 29.39 31.8619 26.1698C31.8634 22.9466 29.2549 20.338 26.0302 20.338Z" fill="#FFCC00"/>
</svg>
