<svg width="20" height="20" viewBox="0 0 20 20" fill="none" xmlns="http://www.w3.org/2000/svg">
<path d="M19.014 13.5407C18.8112 13.4386 18.5917 13.3777 18.3671 13.3612V12.1086H18.7664V10.0209H18.3671V8.35073H19.1657V6.26305H18.7664V5.01044H18.3671V4.5929H18.7664V2.08768H19.1657V0H14.3743V1.25261H13.975V3.75783H13.5757V5.84551H13.975V7.09812H14.3743V7.51566H13.5757V10.8559H13.975V11.2735H13.5757V12.0585L12.3779 11.4363V10.0209H12.7771V8.76826H13.1764V6.68058H12.7771V5.01044H13.1764V2.92275H12.7771V1.67015H7.98572V3.75783H8.385V4.17536H7.98572V7.51566H8.385V7.93319H7.98572V9.16075L7.38679 8.85177C6.91807 8.61009 6.38663 8.53531 5.87349 8.63883L3.59357 9.09812V8.35073H0V17.5365H3.59357V16.8476L10.8127 19.8664C11.021 19.9536 11.2431 19.9989 11.4675 20C11.7871 20.0007 12.1013 19.9128 12.3779 19.7453L18.8423 16.977C19.242 16.8086 19.5729 16.4995 19.7777 16.103C19.9826 15.7066 20.0486 15.2478 19.9643 14.8058C19.9056 14.5344 19.7899 14.2801 19.6255 14.0613C19.4611 13.8424 19.2522 13.6646 19.014 13.5407ZM15.8197 13.7787H16.6462L15.8477 14.0668C15.8536 13.9706 15.8496 13.874 15.8357 13.7787H15.8197ZM17.5686 5.01044H14.3743V4.5929H17.5686V5.01044ZM15.1729 0.835073H18.3671V1.25261H15.1729V0.835073ZM14.7736 2.08768H17.9679V2.50522H14.7736V2.08768ZM14.7736 3.34029H17.9679V3.75783H14.7736V3.34029ZM17.9679 5.84551V6.26305H14.7736V5.84551H17.9679ZM15.1729 7.09812H18.3671V7.51566H15.1729V7.09812ZM14.3743 8.35073H17.5686V8.76826H14.3743V8.35073ZM17.5686 9.60334V10.0209H14.3743V9.60334H17.5686ZM14.7736 10.8559H17.9679V11.2735H14.7736V10.8559ZM14.3743 12.1086H17.5686V12.5261H14.4781L14.3743 12.4718V12.1086ZM11.5793 10.4384H10.4493L9.65074 10.0209H11.5793V10.4384ZM11.9786 9.1858H8.78429V8.76826H11.9786V9.1858ZM8.78429 2.50522H11.9786V2.92275H8.78429V2.50522ZM9.18357 3.75783H12.3779V4.17536H9.18357V3.75783ZM8.78429 5.01044H11.9786V5.42797H8.78429V5.01044ZM11.9786 6.26305V6.68058H8.78429V6.26305H11.9786ZM9.18357 7.51566H12.3779V7.93319H9.18357V7.51566ZM2.795 16.7015H0.798572V9.1858H2.795V16.7015ZM18.5189 16.2046L12.0504 18.977L11.9866 19.0104C11.8559 19.0937 11.7087 19.1442 11.5563 19.158C11.4038 19.1717 11.2505 19.1484 11.1081 19.0898L3.59357 15.9457V9.94989L6.02123 9.4572C6.36547 9.38822 6.72185 9.43957 7.03542 9.60334L14.8215 13.6326C14.9138 13.6737 14.988 13.7498 15.0291 13.8455C15.0658 13.9435 15.0658 14.0523 15.0291 14.1503C14.9053 14.4718 14.3943 14.7223 13.6715 14.8184C13.0013 14.9138 12.3191 14.8511 11.6751 14.6347L7.68226 13.3194L7.44269 14.1169L11.4355 15.4196C11.9575 15.6104 12.5078 15.7023 13.0606 15.691C13.2995 15.6919 13.5381 15.678 13.7754 15.6493C14.2481 15.5996 14.7061 15.449 15.121 15.2067L17.8081 14.2547C17.9429 14.1952 18.0883 14.167 18.2345 14.1721C18.3806 14.1771 18.524 14.2153 18.6546 14.2839C18.7842 14.355 18.8972 14.455 18.9856 14.577C19.0739 14.699 19.1354 14.8399 19.1657 14.9896C19.207 15.2389 19.1653 15.4955 19.0476 15.7166C18.9299 15.9377 18.7433 16.1099 18.5189 16.2046Z" fill="#FFCC00"/>
</svg>
