<svg width="20" height="20" viewBox="0 0 20 20" fill="none" xmlns="http://www.w3.org/2000/svg">
<path d="M10.2895 15.875H9.70898V18.2007H10.2895V15.875Z" fill="#FFCC00"/>
<path d="M7.30301 15.2287L6.80078 14.9375L5.63433 16.9492L6.13656 17.2404L7.30301 15.2287Z" fill="#FFCC00"/>
<path d="M5.0617 6.80554L3.04883 5.64062L2.75803 6.14309L4.7709 7.308L5.0617 6.80554Z" fill="#FFCC00"/>
<path d="M7.31756 4.76455L6.15625 2.75L5.65333 3.03993L6.81463 5.05448L7.31756 4.76455Z" fill="#FFCC00"/>
<path d="M14.349 16.9603L13.1875 14.9453L12.6845 15.2352L13.846 17.2502L14.349 16.9603Z" fill="#FFCC00"/>
<path d="M4.12449 9.71094H1.79883V10.2915H4.12449V9.71094Z" fill="#FFCC00"/>
<path d="M4.98982 13.1524L4.70117 12.6484L2.68236 13.8047L2.97101 14.3087L4.98982 13.1524Z" fill="#FFCC00"/>
<path d="M9.99977 0C4.48599 0 0 4.48581 0 9.99988C0 15.514 4.48575 20 9.99977 20C15.514 20 20 15.5142 20 9.99988C20 4.48604 15.514 0 9.99977 0ZM14.3476 3.04093L13.1858 5.05567L12.683 4.76563L13.8448 2.75089L14.3476 3.04093ZM16.9589 5.65248L17.2489 6.15547L15.2344 7.31727L14.9444 6.81428L16.9589 5.65248ZM15.8744 9.70961H18.2001V10.2902H15.8744V9.70961ZM9.99977 18.6067C5.25416 18.6067 1.39331 14.7458 1.39331 9.99988C1.39331 5.35152 5.09811 1.55472 9.7095 1.40075V9.99988C9.7095 10.1016 9.76267 10.1959 9.84976 10.2484L17.209 14.6928C15.6715 17.0469 13.0151 18.6067 9.99977 18.6067Z" fill="#FFCC00"/>
</svg>
