<svg width="56" height="78" viewBox="0 0 56 78" fill="none" xmlns="http://www.w3.org/2000/svg">
<path d="M33.8454 13.3883C35.9467 13.2266 37.9673 12.4992 39.6645 11.2869L40.2302 10.9636C40.4727 10.802 40.7152 10.4787 40.7152 10.1554C40.7152 9.83214 40.6344 9.50886 40.3919 9.2664L37.4823 6.59931L38.3714 2.15416C38.4522 1.75006 38.2905 1.26513 37.8864 1.02267C37.4823 0.780205 36.9974 0.780205 36.5933 1.02267L36.0276 1.42677C34.6536 2.39662 33.0372 2.96237 31.34 3.12401C29.7235 3.28565 28.1071 3.68976 26.6523 4.49796L29.6427 14.7622C30.9359 13.954 32.3906 13.4691 33.8454 13.3883Z" fill="#FFCC00"/>
<path d="M6.28508 32.8659C6.93165 33.27 9.03299 34.4015 11.7809 34.8056C11.8617 37.0686 12.185 46.8479 12.185 47.0904C12.3466 49.5958 12.5083 53.7985 12.5083 55.1725C12.5083 56.1423 11.2152 61.0724 10.0837 65.0326L14.5288 65.5984H14.6096C14.6905 65.5984 14.7713 65.5984 14.8521 65.5175C15.7411 62.4464 17.2767 56.7889 17.2767 55.0917C17.2767 53.9602 17.1151 51.2931 17.0343 48.8685C17.1959 48.9493 17.2767 49.0301 17.3575 49.1109C17.8425 49.4342 18.6507 49.8383 20.1055 50.4849C20.9945 50.889 22.7725 51.6164 23.5807 52.1013C23.7424 53.3944 23.5807 56.7889 23.3383 59.6984H28.1067C28.9149 50.889 27.9451 49.6767 27.4601 49.1109C26.5711 48.0602 24.7931 47.252 21.9643 46.0397C21.7219 45.8781 21.3178 45.7973 21.0753 45.6356L21.3178 34.7248C24.0657 34.3207 26.0862 33.1892 26.7328 32.7851C27.7026 32.1385 28.9149 30.9262 29.9656 29.6331L30.6122 31.8961C30.7738 32.381 31.1779 32.7043 31.6628 32.7043C31.7437 32.7043 31.9053 32.7043 31.9861 32.6235C32.5519 32.4618 32.956 31.8152 32.7943 31.2495L31.6628 27.4509C32.0669 26.8852 32.3902 26.4002 32.5519 26.1578C33.1984 25.2688 32.956 23.9756 31.9861 23.3291C31.5012 23.0058 30.8546 22.925 30.3697 23.0058L24.7122 3.68958C24.5506 3.12384 23.904 2.71973 23.3383 2.88138C22.7725 3.04302 22.3684 3.68958 22.5301 4.25533L28.43 24.8647C27.1369 26.6427 25.3588 28.8249 24.4698 29.3906C23.3383 30.118 21.2369 30.9262 19.1356 30.9262H13.6398C11.5384 30.9262 9.51792 30.118 8.3056 29.3906C7.25493 28.7441 4.99195 25.8345 3.69882 23.9756C3.05225 23.0866 1.75911 22.8441 0.870085 23.4099C-0.0189449 24.0564 -0.261407 25.3496 0.304339 26.2386C1.03173 27.1276 4.0221 31.5728 6.28508 32.8659Z" fill="#FFCC00"/>
<path d="M16.4696 29.5527C19.1031 29.5527 21.238 27.4178 21.238 24.7843C21.238 22.1508 19.1031 20.0159 16.4696 20.0159C13.8361 20.0159 11.7012 22.1508 11.7012 24.7843C11.7012 27.4178 13.8361 29.5527 16.4696 29.5527Z" fill="#FFCC00"/>
<path d="M55.2626 73.1959L47.5846 65.7604C47.5038 65.5987 47.3421 65.5179 47.2613 65.3563L42.5737 58.3248C41.6039 56.8701 39.745 56.466 38.2902 57.355L31.5012 61.5577L22.2068 61.6385C21.5603 61.6385 20.8329 61.9618 20.4288 62.4467L16.3069 66.7302C15.7412 67.296 14.933 67.6192 14.1248 67.4576L8.62894 66.6494C7.57827 66.4878 6.60841 67.0535 6.12349 67.9425L2.97148 73.7616C2.08245 75.4589 3.29476 77.4794 5.15364 77.4794H53.4037C54.3736 77.4794 55.2626 76.9945 55.7475 76.1863C56.2324 75.1356 55.99 73.9233 55.2626 73.1959Z" fill="#FFCC00"/>
</svg>
