<svg width="20" height="20" viewBox="0 0 20 20" fill="none" xmlns="http://www.w3.org/2000/svg">
<path fill-rule="evenodd" clip-rule="evenodd" d="M10 0C4.48 0 0 4.48 0 10C0 15.52 4.48 20 10 20C15.52 20 20 15.52 20 10C20 4.48 15.52 0 10 0ZM14.3499 5.79645L10.7462 2.5V4.38309H10.7366C9.67963 4.42485 8.74491 4.5963 7.94982 4.91613C7.05632 5.27257 6.31978 5.75678 5.73607 6.36554C5.27447 6.84861 4.91006 7.39843 4.63667 8.01042C4.56455 8.17158 4.49465 8.33292 4.43558 8.50246C4.1512 9.31661 3.95217 10.2006 4.01004 11.1089C4.02395 11.3332 4.13591 12.003 4.26591 12.003C4.26591 12.003 4.42785 11.0647 5.08299 9.98963C5.28409 9.66122 5.51798 9.35094 5.78776 9.06487L5.81816 9.09214V9.03321C5.98576 8.85833 6.16385 8.6905 6.36563 8.53889C6.91121 8.12809 7.57923 7.80217 8.36883 7.56168C9.01539 7.36525 9.75244 7.25082 10.5675 7.20829H10.7471L10.7461 9.09195L14.3499 5.79645ZM9.25392 17.5001L5.65039 14.2036L9.2541 10.9081L9.25307 12.7918H9.43269C10.2477 12.7496 10.9848 12.6352 11.6313 12.4386C12.4209 12.1983 13.0889 11.872 13.6345 11.4612C13.8363 11.3092 14.0144 11.1419 14.1825 10.9669V10.9079L14.2126 10.9352C14.4822 10.6495 14.7161 10.3388 14.9172 10.0108C15.5723 8.93577 15.7348 7.99709 15.7348 7.99709C15.8648 7.99709 15.9762 8.6663 15.9901 8.89114C16.048 9.7995 15.8491 10.6835 15.5646 11.4978C15.5055 11.667 15.4356 11.8285 15.3635 11.9898C15.0901 12.6014 14.726 13.1513 14.2641 13.6343C13.6804 14.2431 12.9438 14.7273 12.0503 15.0837C11.2552 15.4038 10.3205 15.5754 9.26406 15.6172H9.25392V17.5001Z" fill="#FFCC00"/>
</svg>
