<svg width="22" height="21" viewBox="0 0 22 21" fill="none" xmlns="http://www.w3.org/2000/svg">
<path d="M19.8 21.0004H2.2C1.61652 21.0004 1.05695 20.7752 0.644365 20.3743C0.231785 19.9734 0 19.4297 0 18.8627V7.46188C0 6.89494 0.231785 6.35121 0.644365 5.95032C1.05695 5.54944 1.61652 5.32422 2.2 5.32422H19.8C20.3835 5.32422 20.9431 5.54944 21.3556 5.95032C21.7682 6.35121 22 6.89494 22 7.46188V10.3121C22 10.5011 21.9227 10.6823 21.7852 10.8159C21.6477 10.9496 21.4612 11.0246 21.2667 11.0246H16.1333C15.7443 11.0246 15.3713 11.1748 15.0962 11.4421C14.8212 11.7093 14.6667 12.0718 14.6667 12.4498V13.8749C14.6667 14.4418 14.8985 14.9855 15.311 15.3864C15.7236 15.7873 16.2832 16.0125 16.8667 16.0125H21.2667C21.4612 16.0125 21.6477 16.0876 21.7852 16.2212C21.9227 16.3549 22 16.5361 22 16.7251V18.8627C22 19.4297 21.7682 19.9734 21.3556 20.3743C20.9431 20.7752 20.3835 21.0004 19.8 21.0004ZM2.2 6.74933C2.00551 6.74933 1.81898 6.8244 1.68146 6.95803C1.54393 7.09166 1.46667 7.2729 1.46667 7.46188V18.8627C1.46667 19.0517 1.54393 19.233 1.68146 19.3666C1.81898 19.5002 2.00551 19.5753 2.2 19.5753H19.8C19.9945 19.5753 20.181 19.5002 20.3185 19.3666C20.4561 19.233 20.5333 19.0517 20.5333 18.8627V17.4376H16.8667C15.8942 17.4376 14.9616 17.0623 14.2739 16.3941C13.5863 15.726 13.2 14.8198 13.2 13.8749V12.4498C13.2 11.6938 13.509 10.9689 14.0592 10.4343C14.6093 9.89983 15.3554 9.59954 16.1333 9.59954H20.5333V7.46188C20.5333 7.2729 20.4561 7.09166 20.3185 6.95803C20.181 6.8244 19.9945 6.74933 19.8 6.74933H2.2Z" fill="#FFCC00"/>
<path d="M17.8062 15.1412C17.4773 15.1384 17.1566 15.0409 16.8847 14.8612C16.6127 14.6814 16.4016 14.4274 16.2781 14.1312C16.1546 13.835 16.1241 13.5099 16.1906 13.1969C16.2571 12.8838 16.4175 12.597 16.6516 12.3725C16.8857 12.148 17.183 11.9959 17.506 11.9355C17.829 11.875 18.1632 11.9089 18.4664 12.0328C18.7696 12.1567 19.0282 12.3651 19.2096 12.6317C19.391 12.8984 19.487 13.2112 19.4856 13.5308C19.4846 13.7438 19.4404 13.9546 19.3554 14.1509C19.2704 14.3473 19.1463 14.5254 18.9902 14.675C18.8342 14.8246 18.6493 14.9428 18.4461 15.0228C18.2429 15.1028 18.0255 15.1431 17.8062 15.1412ZM17.8062 13.3313C17.7511 13.3313 17.6981 13.3521 17.6584 13.3893C17.6187 13.4265 17.5955 13.4773 17.5936 13.5308C17.5936 13.7375 18.0189 13.7375 18.0189 13.5308C18.0153 13.4778 17.9915 13.4281 17.9522 13.3912C17.9129 13.3543 17.8609 13.3329 17.8062 13.3313Z" fill="#FFCC00"/>
<path d="M19.9101 6.6842H9.0861C8.93019 6.68384 8.77846 6.63522 8.65293 6.54538C8.5274 6.45554 8.43461 6.32917 8.38801 6.18461C8.34142 6.04005 8.34345 5.88482 8.39381 5.74146C8.44418 5.59809 8.54025 5.47406 8.66809 5.38735L15.4661 0.805633C15.6118 0.706643 15.7763 0.636771 15.95 0.600074C16.1237 0.563377 16.3032 0.560587 16.4781 0.591867C16.8285 0.654926 17.1394 0.849456 17.3434 1.13341L20.5334 5.56549C20.6058 5.66936 20.6486 5.78995 20.6576 5.91507C20.6666 6.04018 20.6415 6.16539 20.5848 6.27804C20.5243 6.40151 20.4285 6.50545 20.3089 6.57747C20.1892 6.64949 20.0508 6.68654 19.9101 6.6842ZM11.4328 5.25909H18.5094L16.2068 2.03835L11.4328 5.25909Z" fill="#FFCC00"/>
<path d="M9.08544 6.68547H2.93277C2.77687 6.68511 2.62514 6.63649 2.49961 6.54665C2.37408 6.45681 2.28129 6.33044 2.23469 6.18588C2.18809 6.04132 2.19013 5.88609 2.24049 5.74273C2.29086 5.59936 2.38693 5.47533 2.51477 5.38862L9.21744 0.871035C9.53657 0.656104 9.9304 0.572912 10.3126 0.639699C10.6947 0.706486 11.034 0.917802 11.2561 1.22731L12.8328 3.43623C12.8876 3.51342 12.9261 3.60037 12.9463 3.69207C12.9664 3.78378 12.9677 3.87844 12.9501 3.97064C12.9156 4.15518 12.8075 4.31904 12.6494 4.42668L9.48877 6.56434C9.36946 6.64226 9.2292 6.68438 9.08544 6.68547ZM5.28677 5.26036H8.85811L11.2268 3.66424L10.0681 2.03962L5.28677 5.26036Z" fill="#FFCC00"/>
<path d="M3.66693 18.1476C3.47243 18.1476 3.28591 18.0726 3.14838 17.9389C3.01086 17.8053 2.93359 17.6241 2.93359 17.4351V8.88443C2.93359 8.69545 3.01086 8.51421 3.14838 8.38058C3.28591 8.24695 3.47243 8.17188 3.66693 8.17188C3.86142 8.17188 4.04795 8.24695 4.18547 8.38058C4.323 8.51421 4.40026 8.69545 4.40026 8.88443V17.4351C4.40026 17.6241 4.323 17.8053 4.18547 17.9389C4.04795 18.0726 3.86142 18.1476 3.66693 18.1476Z" fill="#FFCC00"/>
<path d="M21.2665 18.1483C21.072 18.1483 20.8855 18.0732 20.748 17.9396C20.6105 17.806 20.5332 17.6247 20.5332 17.4357V10.3102C20.5332 10.1212 20.6105 9.93999 20.748 9.80636C20.8855 9.67273 21.072 9.59766 21.2665 9.59766C21.461 9.59766 21.6476 9.67273 21.7851 9.80636C21.9226 9.93999 21.9999 10.1212 21.9999 10.3102V17.4357C21.9999 17.6247 21.9226 17.806 21.7851 17.9396C21.6476 18.0732 21.461 18.1483 21.2665 18.1483Z" fill="#FFCC00"/>
</svg>
