<svg width="10" height="10" viewBox="0 0 10 10" fill="none" xmlns="http://www.w3.org/2000/svg">
<path d="M5.21292 9.77613C1.91726 9.77613 1.03671 6.34062 1.43474 4.08966C1.45206 3.99169 1.58048 3.96347 1.63644 4.04574C1.80972 4.30042 1.96392 4.66829 2.21941 4.63636C2.60341 4.58835 2.86945 1.19992 5.14533 0.246497C5.21755 0.216244 5.29312 0.273646 5.28519 0.351537C5.17265 1.4557 5.8356 3.03646 7.01011 3.03646C7.68339 3.03646 8.14406 2.49911 8.37425 1.95947C8.44417 1.79554 8.68368 1.8162 8.72378 1.98986C9.13454 3.7688 10.2326 9.77613 5.21292 9.77613Z" fill="#FF8F1F"/>
<path d="M4.05681 6.46321C4.13431 6.39809 4.25197 6.44278 4.26956 6.54246C4.31073 6.77573 4.44613 7.1766 4.89023 7.1766C5.42445 7.1766 5.78698 5.7066 5.88206 5.27428C5.89771 5.20315 5.96702 5.15485 6.03839 5.16936C7.37345 5.4408 8.02257 9.77596 5.08716 9.77596C2.95021 9.77596 3.43433 6.98614 4.05681 6.46321ZM7.70488 1.76842C7.75193 1.40041 7.08013 2.40696 7.08013 2.40696C7.08013 2.40696 7.5923 2.64887 7.70488 1.76842ZM0.935852 7.25674C0.950012 7.10008 0.748469 6.68063 0.712785 6.8467C0.627375 7.24405 0.921691 7.41342 0.935852 7.25674Z" fill="#FFB636"/>
<path d="M6.3125 6.80897C6.26244 6.60018 6.08291 7.08514 6.10547 7.28268C6.12802 7.4802 6.43224 7.3085 6.3125 6.80897Z" fill="#FFD469"/>
</svg>
