<svg width="12" height="11" viewBox="0 0 12 11" fill="none" xmlns="http://www.w3.org/2000/svg">
<path d="M11.8615 5.14411L10.8153 4.00218L10.9615 2.48859C10.9896 2.21926 10.7984 1.97149 10.5284 1.91224L8.97591 1.57289L8.16593 0.263979C8.0967 0.151705 7.98718 0.0673844 7.85781 0.0267482C7.72843 -0.0138881 7.58804 -0.00806381 7.46282 0.0431342L6.00035 0.651804L4.5435 0.0539071C4.28476 -0.0538221 3.98101 0.0431342 3.84039 0.274752L3.02478 1.57828L1.47794 1.91224C1.20232 1.97149 1.01107 2.21388 1.0392 2.48859L1.18544 3.9968L0.139216 5.14411C-0.0464053 5.3488 -0.0464053 5.65044 0.139216 5.85513L1.18544 6.99706L1.0392 8.51604C1.01107 8.78536 1.20232 9.03314 1.47231 9.09239L3.02478 9.43174L3.83477 10.7353C3.98101 10.9669 4.27913 11.0638 4.5435 10.9561L6.00035 10.3474L7.45719 10.9453C7.71594 11.0531 8.01968 10.9561 8.1603 10.7245L8.97029 9.41558L10.5228 9.07623C10.7984 9.01698 10.984 8.7692 10.9559 8.49988L10.8096 6.98628L11.8559 5.84435C12.0471 5.65044 12.0471 5.3488 11.8615 5.14411ZM6.56284 8.19285H5.43786V7.11556H6.56284V8.19285ZM6.00035 6.03827C5.69098 6.03827 5.43786 5.79588 5.43786 5.49962V3.34504C5.43786 3.04878 5.69098 2.80639 6.00035 2.80639C6.30972 2.80639 6.56284 3.04878 6.56284 3.34504V5.49962C6.56284 5.79588 6.30972 6.03827 6.00035 6.03827Z" fill="#70C054"/>
</svg>
