<svg width="41" height="37" viewBox="0 0 41 37" fill="none" xmlns="http://www.w3.org/2000/svg">
<path d="M11.9123 21.4582C13.0645 21.4582 14.1782 21.3826 15.2321 21.2419V9.50965C14.1783 9.36905 13.0645 9.29346 11.9123 9.29346C5.33331 9.29346 0 11.7501 0 14.7807V15.9708C0 19.0013 5.33331 21.4582 11.9123 21.4582Z" fill="#FFCC00"/>
<path d="M11.9123 27.5842C13.0645 27.5842 14.1782 27.5086 15.2321 27.3681V23.9292C14.178 24.0698 13.0648 24.1464 11.9123 24.1464C6.16955 24.1464 1.37641 22.2744 0.250535 19.783C0.0865744 20.1459 0 20.5216 0 20.9068V22.0969C0 25.1275 5.33331 27.5842 11.9123 27.5842Z" fill="#FFCC00"/>
<path d="M15.2321 30.3232V30.0558C14.178 30.1964 13.0648 30.2731 11.9123 30.2731C6.16955 30.2731 1.37641 28.4011 0.250535 25.9097C0.0865744 26.2725 0 26.6482 0 27.0334V28.2235C0 31.2542 5.33331 33.7109 11.9123 33.7109C13.2279 33.7109 14.4934 33.6124 15.6767 33.4309C15.3834 32.8215 15.2321 32.1789 15.2321 31.5131V30.3232Z" fill="#FFCC00"/>
<path d="M29.088 0C22.5091 0 17.1758 2.45668 17.1758 5.48728V6.67731C17.1758 9.70791 22.5091 12.1646 29.088 12.1646C35.6669 12.1646 41.0003 9.70791 41.0003 6.67731V5.48728C41.0003 2.45668 35.6669 0 29.088 0Z" fill="#FFCC00"/>
<path d="M29.088 14.8531C23.3453 14.8531 18.5522 12.9813 17.4263 10.4897C17.2624 10.8526 17.1758 11.2283 17.1758 11.6136V12.8036C17.1758 15.8342 22.5091 18.2909 29.088 18.2909C35.6669 18.2909 41.0003 15.8342 41.0003 12.8036V11.6136C41.0003 11.2283 40.9137 10.8526 40.7498 10.4897C39.6239 12.9813 34.8308 14.8531 29.088 14.8531Z" fill="#FFCC00"/>
<path d="M29.088 20.9791C23.3453 20.9791 18.5522 19.1071 17.4263 16.6157C17.2624 16.9785 17.1758 17.3543 17.1758 17.7396V18.9296C17.1758 21.9603 22.5091 24.417 29.088 24.417C35.6669 24.417 41.0003 21.9603 41.0003 18.9296V17.7396C41.0003 17.3543 40.9137 16.9785 40.7498 16.6157C39.6239 19.1072 34.8308 20.9791 29.088 20.9791Z" fill="#FFCC00"/>
<path d="M29.088 27.4361C23.3453 27.4361 18.5522 25.5642 17.4263 23.0728C17.2624 23.4357 17.1758 23.8113 17.1758 24.1965V25.3867C17.1758 28.4172 22.5091 30.8739 29.088 30.8739C35.6669 30.8739 41.0003 28.4172 41.0003 25.3867V24.1965C41.0003 23.8113 40.9137 23.4355 40.7498 23.0728C39.6239 25.5641 34.8308 27.4361 29.088 27.4361Z" fill="#FFCC00"/>
<path d="M29.088 33.5621C23.3453 33.5621 18.5522 31.6902 17.4263 29.1988C17.2624 29.5617 17.1758 29.9376 17.1758 30.3226V31.5126C17.1758 34.5432 22.5091 36.9999 29.088 36.9999C35.6669 36.9999 41.0003 34.5432 41.0003 31.5126V30.3225C41.0003 29.9373 40.9137 29.5614 40.7498 29.1987C39.6239 31.6901 34.8308 33.5621 29.088 33.5621Z" fill="#FFCC00"/>
</svg>
