<svg width="18" height="19" viewBox="0 0 18 19" fill="none" xmlns="http://www.w3.org/2000/svg">
<path d="M17.25 10.068H14.823L12.7238 0.830411C12.633 0.431697 12.3262 0.163511 11.9828 0.168025C11.6378 0.177939 11.343 0.468611 11.2673 0.87184L8.83125 14.0262L5.95575 4.36471C5.84624 3.99663 5.55451 3.75903 5.22601 3.76801C4.89976 3.78063 4.61851 4.0443 4.52851 4.42053L3.18449 10.068H0.749988C0.33525 10.068 0 10.4712 0 10.968C0 11.4648 0.33525 11.868 0.749988 11.868H3.74998C4.08449 11.868 4.37924 11.6016 4.47072 11.2146L5.3287 7.61007L8.2942 17.5704C8.40069 17.9304 8.68419 18.168 8.99996 18.168C9.01571 18.168 9.03073 18.1671 9.04648 18.1662C9.37948 18.141 9.65921 17.8548 9.73199 17.4633L12.0735 4.81557L13.5263 11.2047C13.6155 11.5962 13.9118 11.868 14.25 11.868H17.25C17.6647 11.868 18 11.4648 18 10.968C18 10.4712 17.6647 10.068 17.25 10.068Z" fill="#FFCC00"/>
</svg>
