<svg width="109" height="80" viewBox="0 0 109 80" fill="none" xmlns="http://www.w3.org/2000/svg">
<path d="M106.528 41.3954H93.4672C91.672 38.8417 88.9744 37.0329 85.8976 36.3602L76.5681 34.3202C80.3859 31.7453 82.9019 27.3806 82.9019 22.4392V17.2577V14.8604V14.321C82.9019 6.42435 76.4775 0 68.5809 0C60.6842 0 54.2599 6.42435 54.2599 14.321V14.8604V17.2577V22.4392C54.2599 27.3743 56.7692 31.7345 60.579 34.3107L51.2554 36.3562C50.8571 36.4436 50.4656 36.5508 50.0809 36.6749V19.1137C50.0809 17.9419 49.1306 16.9916 47.9588 16.9916H33.5287C32.3569 16.9916 31.4066 17.9419 31.4066 19.1137C31.4066 20.2855 32.3569 21.2358 33.5287 21.2358H45.8367V50.9448H31.4066V40.3344C31.4066 36.8241 28.5508 33.9682 25.0404 33.9682C21.5301 33.9682 18.6742 36.8241 18.6742 40.3344V50.9448H4.24414V21.2358H16.5521C17.724 21.2358 18.6742 20.2855 18.6742 19.1137C18.6742 17.9419 17.724 16.9916 16.5521 16.9916H2.12207C0.950263 16.9916 0 17.9419 0 19.1137V53.0668C0 54.2386 0.950263 55.1889 2.12207 55.1889H18.6742V59.2208H18.462C14.8345 59.2208 11.8836 62.1718 11.8836 65.7992V66.8603H2.12207C0.950263 66.8603 0 67.8105 0 68.9823V77.4706C0 78.6424 0.950263 79.5927 2.12207 79.5927H106.528C107.7 79.5927 108.65 78.6424 108.65 77.4706V68.9823V60.4941V52.0058V43.5175C108.65 42.3457 107.7 41.3954 106.528 41.3954ZM93.6213 66.8603H81.4875V62.6161H104.406V66.8603H93.6213ZM104.406 58.372H81.4875V54.1279H104.406V58.372ZM104.406 49.8837H81.4875V45.6396H92.2833C92.2897 45.6396 92.2961 45.6409 92.3022 45.6409C92.3088 45.6409 92.3156 45.6396 92.3222 45.6396H104.406V49.8837ZM58.5038 14.3212C58.5038 8.76479 63.0244 4.24435 68.5807 4.24435C73.8716 4.24435 78.2231 8.34292 78.6269 13.532L73.694 10.6339C72.8004 10.1087 71.6583 10.3063 70.9926 11.1005C68.8438 13.6651 65.6923 15.1361 62.3464 15.1361H58.504V14.8609V14.3212H58.5038ZM58.5038 19.38H62.3464C66.3412 19.38 70.1344 17.8566 73.0003 15.1486L78.6577 18.4724V22.4394C78.6577 27.9958 74.1371 32.5163 68.5809 32.5163C63.0246 32.5163 58.504 27.9956 58.504 22.4394V19.38H58.5038ZM71.9051 36.3668L68.549 45.3418L65.1868 36.3506C66.2754 36.6163 67.4114 36.7604 68.5807 36.7604C69.7253 36.7604 70.8375 36.6216 71.9051 36.3668ZM47.9588 55.1889C49.1306 55.1889 50.0809 54.2386 50.0809 53.0668V41.2632C50.7355 40.9182 51.4335 40.6623 52.1647 40.5018L61.4467 38.4655L66.5615 52.1437C66.8715 52.9728 67.6637 53.5224 68.549 53.5224C69.4343 53.5224 70.2265 52.9728 70.5366 52.1435L75.6516 38.4644L84.991 40.5065C85.8108 40.6856 86.5887 40.9891 87.3045 41.3952H79.3654C78.1936 41.3952 77.2434 42.3455 77.2434 43.5173V52.0056V60.4939V66.8601H45.6625V55.1887H47.9588V55.1889ZM41.4184 55.1889V66.8603H38.1973V65.7992C38.1973 62.1718 35.2463 59.2208 31.6188 59.2208H31.4066V55.1889H41.4184ZM22.9184 40.3344C22.9184 39.1643 23.8703 38.2123 25.0404 38.2123C26.2105 38.2123 27.1625 39.1643 27.1625 40.3344V59.2208H22.9184V40.3344ZM16.1277 65.7992C16.1277 64.5122 17.175 63.465 18.462 63.465H20.7963H29.2846H31.6188C32.9059 63.465 33.9531 64.5122 33.9531 65.7992V66.8603H16.1277V65.7992ZM104.406 75.3486H4.24414V71.1044H104.406V75.3486Z" fill="#FFCC00"/>
<path d="M23.5397 17.6135C23.145 18.0082 22.918 18.5557 22.918 19.1138C22.918 19.6719 23.1448 20.2194 23.5397 20.6139C23.9344 21.0086 24.4819 21.2358 25.04 21.2358C25.5981 21.2358 26.1456 21.0088 26.5401 20.6139C26.935 20.2194 27.1621 19.6719 27.1621 19.1138C27.1621 18.5557 26.935 18.0082 26.5401 17.6135C26.1456 17.2188 25.5981 16.9917 25.04 16.9917C24.4819 16.9917 23.9344 17.2185 23.5397 17.6135Z" fill="#FFCC00"/>
</svg>
