<svg width="17" height="18" viewBox="0 0 17 18" fill="none" xmlns="http://www.w3.org/2000/svg">
<path d="M16.7996 1.29886L15.7757 0.214773C15.7394 0.176706 15.6904 0.155352 15.6393 0.155352C15.5882 0.155352 15.5391 0.176706 15.5028 0.214773L0.200426 16.4122C0.164475 16.4507 0.144307 16.5026 0.144307 16.5567C0.144307 16.6108 0.164475 16.6627 0.200426 16.7011L1.22429 17.7852C1.29915 17.8645 1.4223 17.8645 1.49716 17.7852L16.7972 1.58523C16.8744 1.50852 16.8744 1.37813 16.7996 1.29886ZM3.47727 7.36364C5.3946 7.36364 6.95455 5.71193 6.95455 3.68182C6.95455 1.6517 5.3946 0 3.47727 0C1.55994 0 0 1.6517 0 3.68182C0 5.71193 1.55994 7.36364 3.47727 7.36364ZM3.47727 1.84091C4.43594 1.84091 5.21591 2.66676 5.21591 3.68182C5.21591 4.69688 4.43594 5.52273 3.47727 5.52273C2.51861 5.52273 1.73864 4.69688 1.73864 3.68182C1.73864 2.66676 2.51861 1.84091 3.47727 1.84091ZM13.5227 10.6364C11.6054 10.6364 10.0455 12.2881 10.0455 14.3182C10.0455 16.3483 11.6054 18 13.5227 18C15.4401 18 17 16.3483 17 14.3182C17 12.2881 15.4401 10.6364 13.5227 10.6364ZM13.5227 16.1591C12.5641 16.1591 11.7841 15.3332 11.7841 14.3182C11.7841 13.3031 12.5641 12.4773 13.5227 12.4773C14.4814 12.4773 15.2614 13.3031 15.2614 14.3182C15.2614 15.3332 14.4814 16.1591 13.5227 16.1591Z" fill="#FFCC00"/>
</svg>
