<svg width="15" height="16" viewBox="0 0 15 16" fill="none" xmlns="http://www.w3.org/2000/svg">
<path d="M14.8232 1.15455L13.9197 0.190909C13.8877 0.157072 13.8444 0.138091 13.7994 0.138091C13.7543 0.138091 13.711 0.157072 13.679 0.190909L0.176847 14.5886C0.145125 14.6228 0.127329 14.669 0.127329 14.717C0.127329 14.7651 0.145125 14.8113 0.176847 14.8455L1.08026 15.8091C1.14631 15.8795 1.25497 15.8795 1.32102 15.8091L14.821 1.40909C14.8892 1.34091 14.8892 1.225 14.8232 1.15455ZM3.06818 6.54545C4.75994 6.54545 6.13636 5.07727 6.13636 3.27273C6.13636 1.46818 4.75994 0 3.06818 0C1.37642 0 0 1.46818 0 3.27273C0 5.07727 1.37642 6.54545 3.06818 6.54545ZM3.06818 1.63636C3.91406 1.63636 4.60227 2.37045 4.60227 3.27273C4.60227 4.175 3.91406 4.90909 3.06818 4.90909C2.2223 4.90909 1.53409 4.175 1.53409 3.27273C1.53409 2.37045 2.2223 1.63636 3.06818 1.63636ZM11.9318 9.45455C10.2401 9.45455 8.86364 10.9227 8.86364 12.7273C8.86364 14.5318 10.2401 16 11.9318 16C13.6236 16 15 14.5318 15 12.7273C15 10.9227 13.6236 9.45455 11.9318 9.45455ZM11.9318 14.3636C11.0859 14.3636 10.3977 13.6295 10.3977 12.7273C10.3977 11.825 11.0859 11.0909 11.9318 11.0909C12.7777 11.0909 13.4659 11.825 13.4659 12.7273C13.4659 13.6295 12.7777 14.3636 11.9318 14.3636Z" fill="black"/>
</svg>
