<svg width="28" height="28" viewBox="0 0 28 28" fill="none" xmlns="http://www.w3.org/2000/svg">
<path d="M16.2119 11.1995C14.4863 9.61704 12.1968 8.64062 9.68 8.64062C4.34337 8.64062 0 12.984 0 18.3206C0 23.6573 4.34337 28.0006 9.68 28.0006C15.0166 28.0006 19.36 23.6573 19.36 18.3206C19.36 15.8038 18.3836 13.5143 16.8011 11.7887L16.2119 11.1995Z" fill="#FFCC00"/>
<path d="M12.6384 17.4614C13.3066 17.1404 13.7242 16.5748 13.6262 15.6333C13.4944 14.3462 12.3155 13.9153 10.8274 13.793L10.8267 12.2373C10.827 12.2323 10.8298 12.228 10.8298 12.2228C10.8298 12.1042 10.7277 12.0082 10.6018 12.008H9.90706C9.84669 12.008 9.7888 12.0307 9.74613 12.0709C9.70345 12.1112 9.67948 12.1658 9.67948 12.2227H9.6742L9.67511 13.7464C9.37191 13.7464 9.06215 13.7521 8.75458 13.7581L8.75403 12.2416C8.75458 12.235 8.75804 12.2294 8.75804 12.2227C8.75804 12.104 8.656 12.008 8.5301 12.0078H7.83533C7.77495 12.0079 7.71707 12.0305 7.67439 12.0708C7.63172 12.111 7.60774 12.1656 7.60774 12.2225L7.60793 12.223H7.60228L7.60264 13.7933C7.35301 13.7981 7.10794 13.8031 6.86888 13.8031L6.8687 13.7975H5.27873V13.7997C5.24879 13.7997 5.21913 13.8052 5.19147 13.816C5.1638 13.8268 5.13866 13.8426 5.11749 13.8626C5.09632 13.8825 5.07953 13.9062 5.06808 13.9323C5.05664 13.9584 5.05076 13.9863 5.05078 14.0146V14.7404C5.05078 14.859 5.15282 14.9552 5.27873 14.9552L5.27964 14.9551V14.9583C5.27964 14.9583 6.13093 14.9427 6.11671 14.9569C6.58354 14.9571 6.73568 15.2125 6.77996 15.4329L6.78087 17.4669L6.78105 17.4746L6.78197 20.3235C6.76156 20.4619 6.67519 20.683 6.34903 20.6835C6.36379 20.6957 5.51105 20.6833 5.51105 20.6833L5.51086 20.6843C5.50941 20.6843 5.50831 20.6835 5.50685 20.6835C5.39735 20.6835 5.31025 20.7577 5.2882 20.8547L5.27891 20.8542L5.069 21.742L5.07392 21.7428C5.07301 21.7507 5.069 21.7576 5.069 21.7658C5.069 21.8799 5.16412 21.9711 5.28328 21.9781L5.28274 21.9814L6.78288 21.9809C7.06202 21.9809 7.3368 21.9852 7.60647 21.9867L7.60774 23.5775H7.60829C7.60829 23.696 7.71033 23.7922 7.83624 23.7922H8.53101C8.5914 23.7921 8.64928 23.7694 8.69195 23.7291C8.73462 23.6888 8.75859 23.6342 8.75859 23.5773H8.75895L8.75822 22.0059C9.07436 22.012 9.38029 22.0142 9.67912 22.0135L9.67948 23.5775H9.68003C9.68021 23.696 9.78206 23.7922 9.90779 23.7922H10.6026C10.663 23.7921 10.7208 23.7694 10.7635 23.7291C10.8062 23.6888 10.8301 23.6342 10.8301 23.5773V23.5771H10.8316L10.8312 21.9889C12.769 21.8833 14.1254 21.4227 14.2931 19.7071C14.4283 18.326 13.7386 17.7098 12.6384 17.4614ZM8.78191 15.0354C9.43258 15.0351 11.4766 14.8393 11.4774 16.1195C11.4775 17.3472 9.43331 17.2047 8.78264 17.205L8.78191 15.0354ZM8.78391 20.6921L8.78337 18.2997C9.56469 18.2997 12.0145 18.0871 12.0151 19.4943C12.0162 20.8435 9.56523 20.6909 8.78391 20.6921Z" fill="white"/>
<path d="M23.0008 5.99915C23.0008 5.44687 22.5531 4.99915 22.0008 4.99915L13.0008 4.99915C12.4486 4.99915 12.0008 5.44687 12.0008 5.99915C12.0008 6.55144 12.4486 6.99915 13.0008 6.99915H21.0008V14.9992C21.0008 15.5514 21.4486 15.9992 22.0008 15.9992C22.5531 15.9992 23.0008 15.5514 23.0008 14.9992L23.0008 5.99915ZM16.9688 12.4454L22.708 6.70626L21.2937 5.29204L15.5546 11.0312L16.9688 12.4454Z" fill="#FFCC00"/>
</svg>
