<svg width="74" height="86" viewBox="0 0 74 86" fill="none" xmlns="http://www.w3.org/2000/svg">
<path d="M73.531 23.3337L73.5284 23.2668C73.491 22.4407 73.466 21.5668 73.451 20.5944C73.3808 15.8526 69.6113 11.9303 64.8688 11.6652C54.981 11.1134 47.3319 7.88918 40.7962 1.51885L40.7404 1.46571C38.6087 -0.488894 35.393 -0.488894 33.2606 1.46571L33.2048 1.51885C26.6692 7.88918 19.02 11.1134 9.13222 11.6658C4.3904 11.9303 0.620299 15.8526 0.550094 20.5951C0.535659 21.5609 0.51007 22.4348 0.472671 23.2668L0.468734 23.4223C0.27649 33.505 0.0376597 46.0534 4.23555 57.4431C6.54381 63.7065 10.0396 69.151 14.6253 73.6265C19.8481 78.7232 26.6888 82.7696 34.9573 85.6526C35.2264 85.7464 35.5059 85.8225 35.7906 85.8796C36.1922 85.9597 36.5964 85.9997 37.0005 85.9997C37.4047 85.9997 37.8095 85.9597 38.2104 85.8796C38.4952 85.8225 38.7767 85.7458 39.047 85.6513C47.3056 82.763 54.1392 78.7147 59.3574 73.6186C63.9411 69.1418 67.4369 63.696 69.7471 57.4313C73.9608 46.0075 73.7226 33.4355 73.531 23.3337ZM65.0125 55.6853C60.585 67.6898 51.5468 75.9341 37.3817 80.8878C37.3312 80.9049 37.2774 80.92 37.2216 80.9311C37.0753 80.96 36.9264 80.96 36.7781 80.9305C36.723 80.9193 36.6692 80.9049 36.6193 80.8878C22.4391 75.9432 13.3951 67.7036 8.97082 55.6985C5.10164 45.1998 5.32079 33.6808 5.51434 23.5188L5.51566 23.4623C5.55502 22.589 5.58127 21.6744 5.5957 20.6692C5.6272 18.5637 7.30426 16.8217 9.4137 16.7042C15.0091 16.3919 19.9248 15.3106 24.4416 13.3987C28.9525 11.4893 32.9588 8.79792 36.6882 5.17085C36.8778 5.01076 37.1239 5.0101 37.3128 5.17085C41.0429 8.79792 45.0492 11.4893 49.5594 13.3987C54.0762 15.3106 58.9919 16.3919 64.588 16.7042C66.6974 16.8217 68.3745 18.5637 68.4053 20.6699C68.4204 21.6803 68.4467 22.5949 68.486 23.4623C68.6789 33.6362 68.8928 45.1644 65.0125 55.6853Z" fill="#FFCC00"/>
<path d="M36.9988 21.5688C25.1806 21.5688 15.5664 31.1837 15.5664 43.0013C15.5664 54.8194 25.1806 64.4343 36.9988 64.4343C48.8163 64.4343 58.4312 54.8194 58.4312 43.0013C58.4312 31.1837 48.8163 21.5688 36.9988 21.5688ZM36.9988 59.3874C27.9633 59.3874 20.6127 52.0368 20.6127 43.0013C20.6127 33.9657 27.9633 26.6151 36.9988 26.6151C46.0337 26.6151 53.3843 33.9657 53.3843 43.0013C53.3843 52.0368 46.0337 59.3874 36.9988 59.3874Z" fill="#FFCC00"/>
<path d="M43.1593 36.3475L33.2046 46.3023L30.5026 43.6004C29.5171 42.6149 27.9195 42.6149 26.9339 43.6004C25.9491 44.5859 25.9491 46.1835 26.9339 47.1684L31.4206 51.655C31.9133 52.1478 32.5589 52.3938 33.2046 52.3938C33.8502 52.3938 34.4958 52.1478 34.9886 51.655L46.728 39.9156C47.7129 38.9301 47.7129 37.3324 46.728 36.3475C45.7425 35.3614 44.1448 35.3614 43.1593 36.3475Z" fill="#FFCC00"/>
</svg>
