<svg width="20" height="20" viewBox="0 0 20 20" fill="none" xmlns="http://www.w3.org/2000/svg">
<path fill-rule="evenodd" clip-rule="evenodd" d="M10 0C4.48 0 0 4.48 0 10C0 15.52 4.48 20 10 20C15.52 20 20 15.52 20 10C20 4.48 15.52 0 10 0ZM15 7.01997C15 4.32511 12.4137 2.2291 9.41036 2.52853C7.24125 2.82796 5.40585 4.32511 5.07214 6.2714C4.82185 7.61883 5.23899 8.81655 6.07326 9.7897C7.07439 10.9126 7.49153 12.3349 7.49153 13.6823V13.7571H12.4972V13.5326C12.4972 12.1103 13.0812 10.8377 13.9989 9.71484C14.6663 8.96627 15 7.99312 15 7.01997ZM8.32559 17.4999H11.6627L12.497 16.7513V15.2542H7.49132V16.7513L8.32559 17.4999Z" fill="#FFCC00"/>
</svg>
