<svg width="20" height="20" viewBox="0 0 20 20" fill="none" xmlns="http://www.w3.org/2000/svg">
<path d="M10 0C4.486 0 0 4.486 0 10C0 15.514 4.486 20 10 20C15.514 20 20 15.514 20 10C20 4.486 15.514 0 10 0ZM11.3172 14.5172C11.4736 14.3608 11.7264 14.3608 11.8828 14.5172C12.0392 14.6736 12.0392 14.9264 11.8828 15.0828L10.2832 16.6828C10.2084 16.758 10.1064 16.8 10.0004 16.8C9.8944 16.8 9.7924 16.758 9.7176 16.6828L8.118 15.0828C7.9616 14.9264 7.9616 14.6736 8.118 14.5172C8.2744 14.3608 8.5272 14.3608 8.6836 14.5172L9.6004 15.4344V4.5668L8.6836 5.4836C8.5272 5.64 8.2744 5.64 8.118 5.4836C7.9616 5.3276 7.9616 5.0744 8.118 4.918L9.7176 3.318C9.8676 3.168 10.1332 3.168 10.2832 3.318L11.8828 4.918C12.0392 5.0744 12.0392 5.3276 11.8828 5.4836C11.8048 5.5616 11.7024 5.6008 11.6 5.6008C11.4976 5.6008 11.3952 5.5616 11.3172 5.4836L10.4004 4.5668V15.4344L11.3172 14.5172Z" fill="#FFCC00"/>
</svg>
