<svg width="44" height="37" viewBox="0 0 44 37" fill="none" xmlns="http://www.w3.org/2000/svg">
<path d="M17.0464 11.8974C17.3643 12.2517 17.6352 12.5644 17.8802 12.7989C18.1049 13.0273 18.4093 13.1599 18.7296 13.1689C18.8753 13.1717 19.0192 13.1357 19.1465 13.0647C19.2885 12.9896 19.4017 12.8697 19.4686 12.7236C19.5355 12.5776 19.5524 12.4135 19.5165 12.2569C18.9328 9.33862 15.582 5.60214 12.9399 4.07003L13.0754 3.84594C13.1612 3.69751 13.2169 3.5336 13.2393 3.3636C13.2616 3.1936 13.2502 3.02086 13.2057 2.85528C13.1611 2.6897 13.0843 2.53455 12.9797 2.39871C12.8751 2.26287 12.7447 2.14902 12.5959 2.06369C12.4479 1.97797 12.2844 1.92237 12.1148 1.90008C11.9452 1.87779 11.7729 1.88925 11.6077 1.93381C11.4426 1.97837 11.2878 2.05514 11.1525 2.15971C11.0171 2.26428 10.9037 2.39458 10.8189 2.54313L10.6834 2.76721V2.79327C7.99439 1.33411 3.27298 0.37524 0.521434 1.30806C0.36712 1.35488 0.232496 1.45117 0.13832 1.58207C0.0441438 1.71298 -0.00435321 1.87123 0.000307055 2.03242C0.0254858 2.26481 0.123049 2.48342 0.279213 2.65735C0.435376 2.83128 0.642244 2.95174 0.870589 3.00172C1.19369 3.09031 1.60017 3.17369 2.06918 3.26749C4.41615 3.67841 6.68775 4.44088 8.80735 5.52918L0.047208 20.6679L2.75707 22.2313L11.5068 7.07693C13.5963 8.38111 15.466 10.0081 17.0464 11.8974ZM11.7309 3.0382C11.7648 2.97815 11.8212 2.93401 11.8876 2.91545C11.954 2.89689 12.0251 2.90543 12.0852 2.93918C12.1155 2.95609 12.1419 2.97924 12.1625 3.00709C12.1832 3.03493 12.1977 3.06686 12.2051 3.10073C12.214 3.13383 12.2163 3.16836 12.2118 3.20234C12.2073 3.23632 12.1962 3.26909 12.179 3.29876L12.0488 3.52285L11.6006 3.26228L11.7309 3.0382ZM10.2978 5.52397L11.0795 4.16904L11.5276 4.42961L10.7459 5.78454L10.5219 5.65425L10.2978 5.52397ZM18.2866 11.7202L17.8228 11.199C16.111 9.16138 14.0779 7.41696 11.8038 6.03468L12.4188 4.96637C14.6388 6.25355 17.4059 9.25524 18.2866 11.7202ZM1.60017 2.08454C4.09636 1.63116 7.9058 2.45975 10.1571 3.67397L9.54214 4.74228C7.26609 3.52677 4.81279 2.67734 2.27242 2.22524L1.60017 2.08454ZM2.37664 20.8086L1.46988 20.2875L9.54735 6.29524L10.0007 6.5558L10.4541 6.81637L2.37664 20.8086Z" fill="#FFCC00"/>
<path d="M20.7938 15.1128H13.498V22.4086H20.7938V15.1128ZM19.7516 21.3663H14.5403V16.155H19.7516V21.3663Z" fill="#FFCC00"/>
<path d="M42.1599 25.014C41.8373 25.0149 41.5229 25.1156 41.2598 25.3022C40.9967 25.4888 40.7978 25.7522 40.6903 26.0563H33.8218V24.4929H37.4697V21.8873H39.1269C39.2498 22.235 39.4917 22.528 39.8098 22.7146C40.1279 22.9012 40.5018 22.9694 40.8652 22.907C41.2287 22.8446 41.5585 22.6558 41.7962 22.3738C42.0339 22.0919 42.1642 21.7349 42.1642 21.3661C42.1642 20.9974 42.0339 20.6404 41.7962 20.3585C41.5585 20.0765 41.2287 19.8876 40.8652 19.8253C40.5018 19.7629 40.1279 19.8311 39.8098 20.0177C39.4917 20.2043 39.2498 20.4973 39.1269 20.845H36.4275V23.4507H33.8218V17.7183H22.357V23.9718H16.1035V35.4366H33.8218V32.8309H36.4275V35.9577H39.648C39.771 36.3054 40.0128 36.5985 40.3309 36.7851C40.649 36.9717 41.0229 37.0398 41.3864 36.9774C41.7498 36.9151 42.0796 36.7262 42.3173 36.4443C42.555 36.1623 42.6854 35.8054 42.6854 35.4366C42.6854 35.0678 42.555 34.7109 42.3173 34.4289C42.0796 34.1469 41.7498 33.9581 41.3864 33.8957C41.0229 33.8333 40.649 33.9015 40.3309 34.0881C40.0128 34.2747 39.771 34.5677 39.648 34.9154H37.4697V31.7887H33.8218V30.2253H37.0424C37.1653 30.573 37.4072 30.8661 37.7253 31.0527C38.0434 31.2393 38.4172 31.3074 38.7807 31.245C39.1442 31.1827 39.4739 30.9938 39.7117 30.7119C39.9494 30.4299 40.0797 30.073 40.0797 29.7042C40.0797 29.3354 39.9494 28.9785 39.7117 28.6965C39.4739 28.4145 39.1442 28.2257 38.7807 28.1633C38.4172 28.1009 38.0434 28.1691 37.7253 28.3557C37.4072 28.5423 37.1653 28.8353 37.0424 29.1831H33.8218V27.0985H40.6903C40.7859 27.3689 40.954 27.6078 41.1763 27.7891C41.3986 27.9703 41.6664 28.0869 41.9505 28.1261C42.2347 28.1653 42.5241 28.1256 42.7871 28.0113C43.0502 27.8971 43.2767 27.7126 43.442 27.4782C43.6073 27.2438 43.7049 26.9685 43.7241 26.6823C43.7433 26.3962 43.6835 26.1102 43.5511 25.8558C43.4187 25.6014 43.2189 25.3883 42.9735 25.2398C42.7282 25.0913 42.4467 25.0132 42.1599 25.014ZM40.5965 20.845C40.6995 20.845 40.8003 20.8756 40.886 20.9328C40.9717 20.9901 41.0385 21.0715 41.0779 21.1667C41.1174 21.2619 41.1277 21.3667 41.1076 21.4678C41.0875 21.5689 41.0378 21.6618 40.965 21.7346C40.8921 21.8075 40.7992 21.8572 40.6981 21.8773C40.5971 21.8974 40.4923 21.887 40.397 21.8476C40.3018 21.8082 40.2204 21.7414 40.1632 21.6557C40.1059 21.57 40.0753 21.4692 40.0753 21.3661C40.0753 21.2279 40.1302 21.0954 40.228 20.9977C40.3257 20.8999 40.4583 20.845 40.5965 20.845ZM41.1176 34.9154C41.2207 34.9154 41.3214 34.946 41.4071 35.0033C41.4928 35.0605 41.5596 35.1419 41.5991 35.2371C41.6385 35.3324 41.6488 35.4371 41.6287 35.5382C41.6086 35.6393 41.559 35.7322 41.4861 35.8051C41.4132 35.8779 41.3204 35.9276 41.2193 35.9477C41.1182 35.9678 41.0134 35.9575 40.9182 35.918C40.823 35.8786 40.7416 35.8118 40.6843 35.7261C40.627 35.6404 40.5965 35.5396 40.5965 35.4366C40.5965 35.2984 40.6514 35.1658 40.7491 35.0681C40.8468 34.9703 40.9794 34.9154 41.1176 34.9154ZM38.512 29.1831C38.615 29.1831 38.7158 29.2136 38.8015 29.2709C38.8872 29.3281 38.954 29.4095 38.9934 29.5048C39.0329 29.6 39.0432 29.7048 39.0231 29.8058C39.003 29.9069 38.9533 29.9998 38.8805 30.0727C38.8076 30.1456 38.7147 30.1952 38.6136 30.2153C38.5125 30.2354 38.4078 30.2251 38.3125 30.1856C38.2173 30.1462 38.1359 30.0794 38.0787 29.9937C38.0214 29.908 37.9908 29.8072 37.9908 29.7042C37.9908 29.566 38.0457 29.4334 38.1435 29.3357C38.2412 29.238 38.3738 29.1831 38.512 29.1831ZM32.7796 32.8309V34.3943H17.1458V25.014H23.3993V18.7605H32.7796V32.8309ZM42.1599 27.0985C42.0568 27.0985 41.956 27.068 41.8703 27.0107C41.7846 26.9535 41.7178 26.8721 41.6784 26.7768C41.639 26.6816 41.6286 26.5768 41.6487 26.4757C41.6688 26.3747 41.7185 26.2818 41.7914 26.2089C41.8642 26.136 41.9571 26.0864 42.0582 26.0663C42.1593 26.0462 42.2641 26.0565 42.3593 26.096C42.4545 26.1354 42.5359 26.2022 42.5932 26.2879C42.6504 26.3736 42.681 26.4743 42.681 26.5774C42.681 26.7156 42.6261 26.8482 42.5283 26.9459C42.4306 27.0436 42.2981 27.0985 42.1599 27.0985Z" fill="#FFCC00"/>
<path d="M27.5675 8.33813H23.3984V12.5071H27.5675V8.33813ZM26.5252 11.4649H24.4407V9.38039H26.5252V11.4649Z" fill="#FFCC00"/>
<path d="M22.8773 0H17.666V5.21127H22.8773V0ZM21.835 4.16901H18.7083V1.04225H21.835V4.16901Z" fill="#FFCC00"/>
</svg>
