<svg width="20" height="20" viewBox="0 0 20 20" fill="none" xmlns="http://www.w3.org/2000/svg">
<path d="M0.843824 16.5391H2.61594C3.08214 16.5391 3.45998 16.9169 3.45998 17.3831V19.1552C3.45998 19.6212 3.08214 19.9991 2.61594 19.9991H0.843824C0.377842 19.9991 0 19.6212 0 19.1552V17.3831C0 16.9169 0.377842 16.5391 0.843824 16.5391Z" fill="#FFCC00"/>
<path d="M4.97859 16.5391H6.75071C7.21669 16.5391 7.59453 16.9169 7.59453 17.3831V19.1552C7.59453 19.6212 7.21669 19.9991 6.75071 19.9991H4.97859C4.51239 19.9991 4.13477 19.6212 4.13477 19.1552V17.3831C4.13477 16.9169 4.51239 16.5391 4.97859 16.5391Z" fill="#FFCC00"/>
<path d="M6.75092 16.5391C7.21691 16.5391 7.59475 16.9169 7.59475 17.3831V19.1552C7.59475 19.6212 7.21691 19.9991 6.75092 19.9991H4.97881C4.51261 19.9991 4.13498 19.6212 4.13498 19.1552L4.13477 17.3831C4.13498 16.9169 4.51261 16.5391 4.97881 16.5391H6.75092ZM6.75092 16.8767H4.97881C4.69904 16.8767 4.47243 17.1033 4.47243 17.3831V19.1552C4.47243 19.4348 4.69904 19.6614 4.97881 19.6614H6.75092C7.03047 19.6614 7.25731 19.4348 7.25731 19.1552V17.3831C7.25731 17.1033 7.03047 16.8767 6.75092 16.8767Z" fill="#FFCC00"/>
<path d="M9.11336 16.5391H10.8857C11.3517 16.5391 11.7295 16.9169 11.7295 17.3831V19.1552C11.7295 19.6212 11.3517 19.9991 10.8857 19.9991H9.11336C8.64737 19.9991 8.26953 19.6212 8.26953 19.1552V17.3831C8.26953 16.9169 8.64737 16.5391 9.11336 16.5391Z" fill="#FFCC00"/>
<path d="M10.8857 16.5391C11.3517 16.5391 11.7295 16.9169 11.7295 17.3831V19.1552C11.7295 19.6212 11.3517 19.9991 10.8857 19.9991H9.11336C8.64737 19.9991 8.26953 19.6212 8.26953 19.1552V17.3831C8.26953 16.9169 8.64737 16.5391 9.11336 16.5391H10.8857ZM10.8857 16.8767H9.11336C8.83381 16.8767 8.60719 17.1033 8.60719 17.3831V19.1552C8.60719 19.4348 8.83381 19.6614 9.11336 19.6614H10.8857C11.1652 19.6614 11.3919 19.4348 11.3919 19.1552V17.3831C11.3919 17.1033 11.1652 16.8767 10.8857 16.8767Z" fill="#FFCC00"/>
<path d="M13.2481 16.5391H15.0202C15.4864 16.5391 15.8641 16.9169 15.8641 17.3831V19.1552C15.8641 19.6212 15.4864 19.9991 15.0202 19.9991H13.2481C12.7821 19.9991 12.4043 19.6212 12.4043 19.1552V17.3831C12.4043 16.9169 12.7821 16.5391 13.2481 16.5391Z" fill="#FFCC00"/>
<path d="M15.0202 16.5391C15.4864 16.5391 15.8641 16.9169 15.8641 17.3831V19.1552C15.8641 19.6212 15.4864 19.9991 15.0202 19.9991H13.2481C12.7821 19.9991 12.4043 19.6212 12.4043 19.1552V17.3831C12.4043 16.9169 12.7821 16.5391 13.2481 16.5391H15.0202ZM15.0202 16.8767H13.2481C12.9686 16.8767 12.7417 17.1033 12.7417 17.3831V19.1552C12.7417 19.4348 12.9686 19.6614 13.2481 19.6614H15.0202C15.3 19.6614 15.5266 19.4348 15.5266 19.1552V17.3831C15.5266 17.1033 15.3 16.8767 15.0202 16.8767Z" fill="#FFCC00"/>
<path d="M17.3831 16.5391H19.1552C19.6212 16.5391 19.999 16.9169 19.999 17.3831V19.1552C19.999 19.6212 19.6212 19.9991 19.1552 19.9991H17.3831C16.9169 19.9991 16.5391 19.6212 16.5391 19.1552V17.3831C16.5391 16.9169 16.9169 16.5391 17.3831 16.5391Z" fill="#FFCC00"/>
<path d="M19.1552 16.5391C19.6212 16.5391 19.999 16.9169 19.999 17.3831V19.1552C19.999 19.6212 19.6212 19.9991 19.1552 19.9991H17.3829C16.9169 19.9991 16.5391 19.6212 16.5391 19.1552V17.3831C16.5391 16.9169 16.9169 16.5391 17.3831 16.5391H19.1552ZM19.1552 16.8767H17.3829C17.1033 16.8767 16.8767 17.1033 16.8767 17.3831V19.1552C16.8767 19.4348 17.1033 19.6614 17.3831 19.6614H19.1552C19.4348 19.6614 19.6616 19.4348 19.6616 19.1552V17.3831C19.6616 17.1033 19.4348 16.8767 19.1552 16.8767Z" fill="#FFCC00"/>
<path d="M4.97859 12.4062H6.75071C7.21669 12.4062 7.59453 12.7841 7.59453 13.2501V15.0222C7.59453 15.4882 7.21669 15.866 6.75071 15.866H4.97859C4.51239 15.866 4.13477 15.4882 4.13477 15.0222V13.2501C4.13477 12.7841 4.51239 12.4062 4.97859 12.4062Z" fill="#FFCC00"/>
<path d="M6.75092 12.4062C7.21691 12.4062 7.59475 12.7841 7.59475 13.2501V15.0222C7.59475 15.4882 7.21691 15.866 6.75092 15.866H4.97881C4.51261 15.866 4.13498 15.4882 4.13498 15.0222L4.13477 13.2501C4.13498 12.7841 4.51261 12.4062 4.97881 12.4062H6.75092ZM6.75092 12.7437H4.97881C4.69904 12.7437 4.47243 12.9705 4.47243 13.2501V15.0222C4.47243 15.302 4.69904 15.5286 4.97881 15.5286H6.75092C7.03047 15.5286 7.25731 15.302 7.25731 15.0222V13.2501C7.25731 12.9705 7.03047 12.7437 6.75092 12.7437Z" fill="#FFCC00"/>
<path d="M9.11336 12.4062H10.8857C11.3517 12.4062 11.7295 12.7841 11.7295 13.2501V15.0222C11.7295 15.4882 11.3517 15.866 10.8857 15.866H9.11336C8.64737 15.866 8.26953 15.4882 8.26953 15.0222V13.2501C8.26953 12.7841 8.64737 12.4062 9.11336 12.4062Z" fill="#FFCC00"/>
<path d="M10.8857 12.4062C11.3517 12.4062 11.7295 12.7841 11.7295 13.2501V15.0222C11.7295 15.4882 11.3517 15.866 10.8857 15.866H9.11336C8.64737 15.866 8.26953 15.4882 8.26953 15.0222V13.2501C8.26953 12.7841 8.64737 12.4062 9.11336 12.4062H10.8857ZM10.8857 12.7437H9.11336C8.83381 12.7437 8.60719 12.9705 8.60719 13.2501V15.0222C8.60719 15.302 8.83381 15.5286 9.11336 15.5286H10.8857C11.1652 15.5286 11.3919 15.302 11.3919 15.0222V13.2501C11.3919 12.9705 11.1652 12.7437 10.8857 12.7437Z" fill="#FFCC00"/>
<path d="M9.11336 8.26953H10.8857C11.3517 8.26953 11.7295 8.64738 11.7295 9.11336V10.8857C11.7295 11.3517 11.3517 11.7295 10.8857 11.7295H9.11336C8.64737 11.7295 8.26953 11.3517 8.26953 10.8857V9.11336C8.26953 8.64738 8.64737 8.26953 9.11336 8.26953Z" fill="#FFCC00"/>
<path d="M10.8855 8.26953C11.3517 8.26953 11.7295 8.64738 11.7295 9.11336V10.8857C11.7295 11.3517 11.3517 11.7295 10.8857 11.7295H9.11336C8.64737 11.7295 8.26953 11.3517 8.26953 10.8857V9.11336C8.26953 8.64738 8.64737 8.26953 9.11336 8.26953H10.8855ZM10.8855 8.60719H9.11336C8.83381 8.60719 8.60719 8.83381 8.60719 9.11336V10.8857C8.60719 11.1653 8.83381 11.3919 9.11336 11.3919H10.8855C11.1652 11.3919 11.3919 11.1653 11.3919 10.8857V9.11336C11.3919 8.83381 11.1652 8.60719 10.8855 8.60719Z" fill="#FFCC00"/>
<path d="M13.2481 12.4062H15.0202C15.4864 12.4062 15.8641 12.7841 15.8641 13.2501V15.0222C15.8641 15.4882 15.4864 15.866 15.0202 15.866H13.2481C12.7821 15.866 12.4043 15.4882 12.4043 15.0222V13.2501C12.4043 12.7841 12.7821 12.4062 13.2481 12.4062Z" fill="#FFCC00"/>
<path d="M15.0202 12.4062C15.4864 12.4062 15.8641 12.7841 15.8641 13.2501V15.0222C15.8641 15.4882 15.4864 15.866 15.0202 15.866H13.2481C12.7821 15.866 12.4043 15.4882 12.4043 15.0222V13.2501C12.4043 12.7841 12.7821 12.4062 13.2481 12.4062H15.0202ZM15.0202 12.7437H13.2481C12.9686 12.7437 12.7417 12.9705 12.7417 13.2501V15.0222C12.7417 15.302 12.9686 15.5286 13.2481 15.5286H15.0202C15.3 15.5286 15.5266 15.302 15.5266 15.0222V13.2501C15.5266 12.9705 15.3 12.7437 15.0202 12.7437Z" fill="#FFCC00"/>
<path d="M13.2481 8.26953H15.0202C15.4864 8.26953 15.8641 8.64738 15.8641 9.11336V10.8857C15.8641 11.3517 15.4864 11.7295 15.0202 11.7295H13.2481C12.7821 11.7295 12.4043 11.3517 12.4043 10.8857V9.11336C12.4043 8.64738 12.7821 8.26953 13.2481 8.26953Z" fill="#FFCC00"/>
<path d="M15.0202 8.26953C15.4864 8.26953 15.8641 8.64738 15.8641 9.11336V10.8857C15.8641 11.3517 15.4864 11.7295 15.0202 11.7295H13.2481C12.7821 11.7295 12.4043 11.3517 12.4043 10.8857V9.11336C12.4043 8.64738 12.7821 8.26953 13.2481 8.26953H15.0202ZM15.0202 8.60719H13.2481C12.9686 8.60719 12.7417 8.83381 12.7417 9.11336V10.8857C12.7417 11.1653 12.9686 11.3919 13.2481 11.3919H15.0202C15.3 11.3919 15.5266 11.1653 15.5266 10.8857V9.11336C15.5266 8.83381 15.3 8.60719 15.0202 8.60719Z" fill="#FFCC00"/>
<path d="M13.2481 4.13672H15.0202C15.4864 4.13672 15.8641 4.51435 15.8641 4.98055V6.75267C15.8641 7.21866 15.4864 7.5965 15.0202 7.5965H13.2481C12.7821 7.5965 12.4043 7.21866 12.4043 6.75267V4.98055C12.4043 4.51435 12.7821 4.13672 13.2481 4.13672Z" fill="#FFCC00"/>
<path d="M15.0202 4.13672C15.4864 4.13672 15.8641 4.51435 15.8641 4.98055V6.75267C15.8641 7.21866 15.4864 7.5965 15.0202 7.5965H13.2481C12.7821 7.5965 12.4043 7.21866 12.4043 6.75267V4.98055C12.4043 4.51435 12.7821 4.13672 13.2481 4.13672H15.0202ZM15.0202 4.47416H13.2481C12.9686 4.47416 12.7417 4.70078 12.7417 4.98055V6.75267C12.7417 7.03222 12.9686 7.25906 13.2481 7.25906H15.0202C15.3 7.25906 15.5266 7.03222 15.5266 6.75267V4.98055C15.5266 4.70078 15.3 4.47416 15.0202 4.47416Z" fill="#FFCC00"/>
<path d="M17.3831 12.4062H19.1552C19.6212 12.4062 19.999 12.7841 19.999 13.2501V15.0222C19.999 15.4882 19.6212 15.866 19.1552 15.866H17.3831C16.9169 15.866 16.5391 15.4882 16.5391 15.0222V13.2501C16.5391 12.7841 16.9169 12.4062 17.3831 12.4062Z" fill="#FFCC00"/>
<path d="M19.1552 12.4062C19.6212 12.4062 19.999 12.7841 19.999 13.2501V15.0222C19.999 15.4882 19.6212 15.866 19.1552 15.866H17.3829C16.9169 15.866 16.5391 15.4882 16.5391 15.0222V13.2501C16.5391 12.7841 16.9169 12.4062 17.3831 12.4062H19.1552ZM19.1552 12.7437H17.3829C17.1033 12.7437 16.8767 12.9705 16.8767 13.2501V15.0222C16.8767 15.302 17.1033 15.5286 17.3831 15.5286H19.1552C19.4348 15.5286 19.6616 15.302 19.6616 15.0222V13.2501C19.6616 12.9705 19.4348 12.7437 19.1552 12.7437Z" fill="#FFCC00"/>
<path d="M17.3831 8.26953H19.1552C19.6212 8.26953 19.999 8.64738 19.999 9.11336V10.8857C19.999 11.3517 19.6212 11.7295 19.1552 11.7295H17.3831C16.9169 11.7295 16.5391 11.3517 16.5391 10.8857V9.11336C16.5391 8.64738 16.9169 8.26953 17.3831 8.26953Z" fill="#FFCC00"/>
<path d="M19.1552 8.26953C19.6212 8.26953 19.999 8.64738 19.999 9.11336V10.8857C19.999 11.3517 19.6212 11.7295 19.1552 11.7295H17.3829C16.9169 11.7295 16.5391 11.3517 16.5391 10.8857V9.11336C16.5391 8.64738 16.9169 8.26953 17.3831 8.26953H19.1552ZM19.1552 8.60719H17.3829C17.1033 8.60719 16.8767 8.83381 16.8767 9.11336V10.8857C16.8767 11.1653 17.1033 11.3919 17.3831 11.3919H19.1552C19.4348 11.3919 19.6616 11.1653 19.6614 10.8857V9.11336C19.6616 8.83381 19.4348 8.60719 19.1552 8.60719Z" fill="#FFCC00"/>
<path d="M17.3831 4.13672H19.1552C19.6212 4.13672 19.999 4.51435 19.999 4.98055V6.75267C19.999 7.21866 19.6212 7.5965 19.1552 7.5965H17.3831C16.9169 7.5965 16.5391 7.21866 16.5391 6.75267V4.98055C16.5391 4.51435 16.9169 4.13672 17.3831 4.13672Z" fill="#FFCC00"/>
<path d="M19.1552 4.13672C19.6212 4.13672 19.999 4.51435 19.999 4.98055V6.75267C19.999 7.21866 19.6212 7.5965 19.1552 7.5965H17.3829C16.9169 7.5965 16.5391 7.21866 16.5391 6.75267V4.98055C16.5391 4.51435 16.9169 4.13672 17.3831 4.13672H19.1552ZM19.1552 4.47416H17.3829C17.1033 4.47416 16.8767 4.70078 16.8767 4.98055V6.75267C16.8767 7.03222 17.1033 7.25906 17.3831 7.25906H19.1552C19.4348 7.25906 19.6616 7.03222 19.6616 6.75267V4.98055C19.6616 4.70078 19.4348 4.47416 19.1552 4.47416Z" fill="#FFCC00"/>
<path d="M17.3831 0H19.1552C19.6212 0 19.999 0.377843 19.999 0.843828V2.61595C19.999 3.08216 19.6212 3.45978 19.1552 3.45978H17.3831C16.9169 3.45978 16.5391 3.08216 16.5391 2.61595V0.843828C16.5391 0.377843 16.9169 0 17.3831 0Z" fill="#FFCC00"/>
<path d="M19.1552 0C19.6212 0 19.999 0.377843 19.999 0.843828V2.61595C19.999 3.08216 19.6212 3.45978 19.1552 3.45978H17.3829C16.9169 3.45978 16.5391 3.08216 16.5391 2.61595V0.843828C16.5391 0.377843 16.9169 0 17.3831 0H19.1552ZM19.1552 0.337445H17.3829C17.1033 0.337445 16.8767 0.564281 16.8767 0.843828V2.61595C16.8767 2.89572 17.1033 3.12234 17.3831 3.12234H19.1552C19.4348 3.12234 19.6616 2.89572 19.6614 2.61595V0.843828C19.6616 0.564281 19.4348 0.337445 19.1552 0.337445Z" fill="#FFCC00"/>
</svg>
