<svg width="32" height="32" viewBox="0 0 32 32" fill="none" xmlns="http://www.w3.org/2000/svg">
<path d="M29.1579 0.414062L25.2519 4.32006L21.3459 0.414062L18.5029 3.25606L22.4089 7.16206L18.5029 11.0691L21.3459 13.9111L25.2519 10.0051L29.1579 13.9111L31.9999 11.0691L28.0939 7.16206L31.9999 3.25606L29.1579 0.414062Z" fill="#FFCC00"/>
<path d="M7.256 31.9993C11.256 31.9993 14.511 28.7443 14.511 24.7433C14.511 20.7433 11.256 17.4883 7.256 17.4883C3.255 17.4883 0 20.7433 0 24.7433C0 28.7443 3.255 31.9993 7.256 31.9993ZM7.256 19.4883C10.153 19.4883 12.511 21.8453 12.511 24.7433C12.511 27.6413 10.154 29.9993 7.256 29.9993C4.357 29.9993 2 27.6423 2 24.7433C2 21.8463 4.357 19.4883 7.256 19.4883Z" fill="#FFCC00"/>
<path d="M24.7443 17.4883C20.7443 17.4883 17.4893 20.7433 17.4893 24.7433C17.4893 28.7443 20.7443 31.9993 24.7443 31.9993C28.7453 31.9993 32.0003 28.7443 32.0003 24.7433C32.0003 20.7433 28.7453 17.4883 24.7443 17.4883ZM24.7443 29.9993C21.8473 29.9993 19.4893 27.6423 19.4893 24.7433C19.4893 21.8463 21.8463 19.4883 24.7443 19.4883C27.6423 19.4883 30.0003 21.8453 30.0003 24.7433C30.0003 27.6423 27.6433 29.9993 24.7443 29.9993Z" fill="#FFCC00"/>
<path d="M7.256 14.511C11.256 14.511 14.511 11.256 14.511 7.256C14.511 3.255 11.256 0 7.256 0C3.255 0 0 3.255 0 7.256C0 11.256 3.255 14.511 7.256 14.511ZM7.256 2C10.153 2 12.511 4.357 12.511 7.256C12.511 10.153 10.154 12.511 7.256 12.511C4.357 12.511 2 10.153 2 7.256C2 4.357 4.357 2 7.256 2Z" fill="#FFCC00"/>
</svg>
