<svg width="19" height="17" viewBox="0 0 19 17" fill="none" xmlns="http://www.w3.org/2000/svg">
<path d="M17.4219 0.61814C17.7432 0.850361 18.0372 1.1109 18.2992 1.39574L18.8555 0.902597L17.9782 0.125L17.4219 0.61814Z" fill="#FFCC00"/>
<path d="M4.0715 8.11688C4.07092 8.25083 4.03612 8.38293 3.96973 8.50327L4.46774 8.94469C4.652 8.6995 4.75031 8.41148 4.75031 8.11688C4.75031 7.82227 4.652 7.53425 4.46774 7.28906L3.96973 7.73048C4.03612 7.85082 4.07092 7.98292 4.0715 8.11688Z" fill="#FFCC00"/>
<path d="M0 16.8383H6.10642V11.4258H0V16.8383ZM0.77789 12.5405L1.25758 12.1153L1.63381 12.4481C2.04264 12.1746 2.54095 12.0266 3.05321 12.0266C3.56548 12.0266 4.06378 12.1746 4.47261 12.4481L4.84884 12.1147L5.32853 12.5399L4.95299 12.8739C5.26164 13.2363 5.42862 13.678 5.42862 14.132C5.42862 14.5861 5.26164 15.0278 4.95299 15.3901L5.32887 15.7233L4.84918 16.1485L4.47261 15.8159C4.06378 16.0895 3.56548 16.2375 3.05321 16.2375C2.54095 16.2375 2.04264 16.0895 1.63381 15.8159L1.25758 16.1488L0.77789 15.7236L1.15344 15.3901C0.844778 15.0278 0.677798 14.5861 0.677798 14.132C0.677798 13.678 0.844778 13.2363 1.15344 12.8739L0.77789 12.5405Z" fill="#FFCC00"/>
<path d="M4.0715 14.1325C4.07092 14.2665 4.03612 14.3986 3.96973 14.5189L4.46774 14.9603C4.652 14.7151 4.75031 14.4271 4.75031 14.1325C4.75031 13.8379 4.652 13.5499 4.46774 13.3047L3.96973 13.7461C4.03612 13.8664 4.07092 13.9985 4.0715 14.1325Z" fill="#FFCC00"/>
<path d="M3.05211 13.2306C3.20324 13.2311 3.35227 13.2619 3.48804 13.3208L3.98605 12.8794C3.70943 12.7161 3.38448 12.6289 3.05211 12.6289C2.71973 12.6289 2.39479 12.7161 2.11816 12.8794L2.61618 13.3208C2.75194 13.2619 2.90098 13.2311 3.05211 13.2306Z" fill="#FFCC00"/>
<path d="M3.05211 9.0199C2.90098 9.01938 2.75194 8.98854 2.61618 8.92969L2.11816 9.37111C2.39479 9.53443 2.71973 9.62157 3.05211 9.62157C3.38448 9.62157 3.70943 9.53443 3.98605 9.37111L3.48804 8.92969C3.35227 8.98854 3.20324 9.01938 3.05211 9.0199Z" fill="#FFCC00"/>
<path d="M3.05409 8.4178C3.24145 8.4178 3.39333 8.28317 3.39333 8.1171C3.39333 7.95103 3.24145 7.81641 3.05409 7.81641C2.86673 7.81641 2.71484 7.95103 2.71484 8.1171C2.71484 8.28317 2.86673 8.4178 3.05409 8.4178Z" fill="#FFCC00"/>
<path d="M2.13572 14.5189C2.06854 14.3988 2.03359 14.2666 2.03359 14.1325C2.03359 13.9984 2.06854 13.8662 2.13572 13.7461L1.63804 13.3047C1.45378 13.5499 1.35547 13.8379 1.35547 14.1325C1.35547 14.4271 1.45378 14.7151 1.63804 14.9603L2.13572 14.5189Z" fill="#FFCC00"/>
<path d="M3.05409 14.4334C3.24145 14.4334 3.39333 14.2988 3.39333 14.1327C3.39333 13.9667 3.24145 13.832 3.05409 13.832C2.86673 13.832 2.71484 13.9667 2.71484 14.1327C2.71484 14.2988 2.86673 14.4334 3.05409 14.4334Z" fill="#FFCC00"/>
<path d="M3.05211 15.0355C2.90098 15.035 2.75194 15.0042 2.61618 14.9453L2.11816 15.3867C2.39479 15.5501 2.71973 15.6372 3.05211 15.6372C3.38448 15.6372 3.70943 15.5501 3.98605 15.3867L3.48804 14.9453C3.35227 15.0042 3.20324 15.035 3.05211 15.0355Z" fill="#FFCC00"/>
<path d="M3.05211 7.21496C3.20324 7.21547 3.35227 7.24631 3.48804 7.30516L3.98605 6.86374C3.70943 6.70042 3.38448 6.61328 3.05211 6.61328C2.71973 6.61328 2.39479 6.70042 2.11816 6.86374L2.61618 7.30516C2.75194 7.24631 2.90098 7.21547 3.05211 7.21496Z" fill="#FFCC00"/>
<path d="M2.2298 1.80469L0.250977 4.81164H6.2502L8.22936 1.80469H2.2298Z" fill="#FFCC00"/>
<path d="M0 10.8266H6.10642V5.41406H0V10.8266ZM0.77789 6.52874L1.25758 6.10356L1.63381 6.43643C2.04264 6.16284 2.54095 6.01484 3.05321 6.01484C3.56548 6.01484 4.06378 6.16284 4.47261 6.43643L4.84884 6.10295L5.32853 6.52814L4.95299 6.86221C5.26164 7.22459 5.42862 7.66626 5.42862 8.12032C5.42862 8.57437 5.26164 9.01605 4.95299 9.37842L5.32887 9.7116L4.84918 10.1368L4.47261 9.80421C4.06378 10.0778 3.56548 10.2258 3.05321 10.2258C2.54095 10.2258 2.04264 10.0778 1.63381 9.80421L1.25758 10.1371L0.77789 9.7119L1.15344 9.37842C0.844778 9.01605 0.677798 8.57437 0.677798 8.12032C0.677798 7.66626 0.844778 7.22459 1.15344 6.86221L0.77789 6.52874Z" fill="#FFCC00"/>
<path d="M2.13572 8.50327C2.06854 8.38317 2.03359 8.25093 2.03359 8.11688C2.03359 7.98282 2.06854 7.85059 2.13572 7.73048L1.63804 7.28906C1.45378 7.53425 1.35547 7.82227 1.35547 8.11688C1.35547 8.41148 1.45378 8.6995 1.63804 8.94469L2.13572 8.50327Z" fill="#FFCC00"/>
<path d="M13.5697 3.22347e-07C12.924 0.000126099 12.2835 0.102886 11.6787 0.303401C13.1888 0.260843 14.6628 0.716797 15.8151 1.58286C15.8509 1.60973 15.88 1.64288 15.9006 1.68023C15.9212 1.71758 15.9329 1.75831 15.9348 1.79985C15.9368 1.84139 15.929 1.88283 15.9119 1.92156C15.8949 1.9603 15.869 1.99548 15.8358 2.02488L14.7279 3.00695L15.6051 3.78455L16.5964 2.90592C16.66 2.84952 16.7463 2.81783 16.8363 2.81781C16.8504 2.81787 16.8646 2.81867 16.8787 2.82022C16.93 2.82598 16.9791 2.84206 17.0223 2.86723C17.0655 2.89241 17.1017 2.926 17.128 2.96545C17.6812 3.79089 17.9753 4.73243 17.9798 5.6925C17.9843 6.65258 17.6992 7.59626 17.1538 8.42577C17.983 7.78021 18.5704 6.92596 18.8378 5.9769C19.1052 5.02785 19.0399 4.02909 18.6506 3.11378C18.2612 2.19847 17.5663 1.41011 16.6586 0.853791C15.7508 0.297475 14.6733 -0.000357669 13.5697 3.22347e-07Z" fill="#FFCC00"/>
<path d="M14.2465 3.43094L7.94141 9.01953L8.81866 9.7971L15.1237 4.2085L14.2465 3.43094Z" fill="#FFCC00"/>
<path d="M7.22478 8.8094L8.48236 7.69472V2.61719L6.78613 5.19444V16.0282L8.48236 13.4509V10.3493L7.22478 9.23458C7.16118 9.17819 7.12545 9.10172 7.12545 9.02199C7.12545 8.94226 7.16118 8.86579 7.22478 8.8094Z" fill="#FFCC00"/>
<path d="M17.6394 11.4258H16.9609V12.0272H17.6394V11.4258Z" fill="#FFCC00"/>
<path d="M17.6394 12.6289H16.9609V13.2303H17.6394V12.6289Z" fill="#FFCC00"/>
<path d="M17.6394 13.832H16.9609V14.4334H17.6394V13.832Z" fill="#FFCC00"/>
<path d="M17.6394 15.0352H16.9609V15.6365H17.6394V15.0352Z" fill="#FFCC00"/>
<path d="M16.283 15.0352H15.6045V15.6365H16.283V15.0352Z" fill="#FFCC00"/>
<path d="M14.9285 15.0352H14.25V15.6365H14.9285V15.0352Z" fill="#FFCC00"/>
<path d="M13.5701 15.0352H12.8916V15.6365H13.5701V15.0352Z" fill="#FFCC00"/>
<path d="M12.2136 15.0352H11.5352V15.6365H12.2136V15.0352Z" fill="#FFCC00"/>
<path d="M17.6394 10.2227H16.9609V10.824H17.6394V10.2227Z" fill="#FFCC00"/>
<path d="M10.8582 15.0352H10.1797V15.6365H10.8582V15.0352Z" fill="#FFCC00"/>
</svg>
