<svg width="20" height="20" viewBox="0 0 20 20" fill="none" xmlns="http://www.w3.org/2000/svg">
<path fill-rule="evenodd" clip-rule="evenodd" d="M10 0C4.48 0 0 4.48 0 10C0 15.52 4.48 20 10 20C15.52 20 20 15.52 20 10C20 4.48 15.52 0 10 0ZM9.42857 4H4.28571C4.20994 4 4.13727 4.0301 4.08368 4.08368C4.0301 4.13727 4 4.20994 4 4.28571V8C4 8.07578 4.0301 8.14845 4.08368 8.20203C4.13727 8.25561 4.20994 8.28571 4.28571 8.28571H9.42857C9.50435 8.28571 9.57702 8.25561 9.6306 8.20203C9.68418 8.14845 9.71429 8.07578 9.71429 8V4.28571C9.71429 4.20994 9.68418 4.13727 9.6306 4.08368C9.57702 4.0301 9.50435 4 9.42857 4ZM4.28571 8.85697H9.42857C9.50435 8.85697 9.57702 8.88707 9.6306 8.94065C9.68418 8.99424 9.71429 9.06691 9.71429 9.14269V15.7141C9.71429 15.7899 9.68418 15.8626 9.6306 15.9161C9.57702 15.9697 9.50435 15.9998 9.42857 15.9998H4.28571C4.20994 15.9998 4.13727 15.9697 4.08368 15.9161C4.0301 15.8626 4 15.7899 4 15.7141V9.14269C4 9.06691 4.0301 8.99424 4.08368 8.94065C4.13727 8.88707 4.20994 8.85697 4.28571 8.85697ZM15.7143 11.7141H10.5715C10.4957 11.7141 10.423 11.7442 10.3694 11.7978C10.3159 11.8514 10.2858 11.924 10.2858 11.9998V15.7141C10.2858 15.7899 10.3159 15.8625 10.3694 15.9161C10.423 15.9697 10.4957 15.9998 10.5715 15.9998H15.7143C15.7901 15.9998 15.8628 15.9697 15.9164 15.9161C15.9699 15.8625 16 15.7899 16 15.7141V11.9998C16 11.924 15.9699 11.8514 15.9164 11.7978C15.8628 11.7442 15.7901 11.7141 15.7143 11.7141ZM10.5715 4H15.7143C15.7901 4 15.8628 4.0301 15.9164 4.08368C15.9699 4.13727 16 4.20994 16 4.28571V10.8571C16 10.9329 15.9699 11.0056 15.9164 11.0592C15.8628 11.1128 15.7901 11.1429 15.7143 11.1429H10.5715C10.4957 11.1429 10.423 11.1128 10.3694 11.0592C10.3159 11.0056 10.2858 10.9329 10.2858 10.8571V4.28571C10.2858 4.20994 10.3159 4.13727 10.3694 4.08368C10.423 4.0301 10.4957 4 10.5715 4Z" fill="#FFCC00"/>
</svg>
