<svg width="25" height="18" viewBox="0 0 25 18" fill="none" xmlns="http://www.w3.org/2000/svg">
<path d="M18.5443 13.3594L10.4502 15.7088C10.3839 15.7088 10.3175 15.7548 10.2843 15.7548C9.8531 16.0312 9.65406 16.6762 9.81993 17.275C10.019 17.8739 10.4834 18.1503 10.9146 17.9199L18.5443 13.4515C18.6107 13.4515 18.5775 13.3594 18.5443 13.3594ZM10.2512 17.3672C10.0521 17.1368 10.0521 16.7222 10.218 16.4458C10.3839 16.1694 10.6824 16.1694 10.8814 16.3998C11.0805 16.6301 11.0805 17.0447 10.9146 17.3211C10.7488 17.5514 10.4502 17.5975 10.2512 17.3672Z" fill="#FFCC00"/>
<path d="M9.22146 3.73219C9.25464 3.91645 9.4205 4.05465 9.55319 4.05465C9.85174 4.00858 10.1835 4.00859 10.482 4.00859C10.9796 4.00859 11.444 4.05465 11.9084 4.14678C12.1075 4.19285 12.3065 3.96252 12.3065 3.68612V0.507539C12.3065 0.231141 12.1407 0.046875 11.9748 0.046875C10.9133 0.0929414 9.85174 0.36934 8.88974 0.783938C8.72388 0.87607 8.62436 1.1064 8.6907 1.3828L9.22146 3.73219Z" fill="#FFCC00"/>
<path d="M12.8038 4.37631C13.5004 4.60664 14.197 4.97517 14.8605 5.38977C15.0264 5.52797 15.2586 5.38977 15.3249 5.11337L16.2206 1.33593C16.2869 1.10559 16.1874 0.829195 16.0215 0.737063C15.0264 0.322465 13.998 0.0460664 12.9365 0C12.7375 0 12.6048 0.184266 12.6048 0.460664V3.91564C12.5384 4.14598 12.6379 4.33024 12.8038 4.37631Z" fill="#FFCC00"/>
<path d="M23.0547 7.50823L19.0077 11.6081C18.875 11.7463 18.8418 11.9767 18.9082 12.207C19.2067 12.9441 19.3062 13.4047 19.5053 14.1879C19.5716 14.4182 19.7375 14.5564 19.9033 14.4643L24.6802 12.2991C24.8461 12.207 24.9456 11.9767 24.8792 11.7003C24.5475 10.3643 24.0167 8.75202 23.5192 7.60036C23.4196 7.37003 23.1874 7.32397 23.0547 7.50823Z" fill="#FFCC00"/>
<path d="M6.26978 5.3459C7.03275 4.83917 7.82889 4.42457 8.6582 4.19424C8.85724 4.14817 8.98993 3.87178 8.92358 3.59538L8.42599 1.43026C8.35965 1.19992 8.16061 1.06173 7.99475 1.15386C7.03275 1.70666 6.10391 2.39765 5.2746 3.27291C5.14191 3.41111 5.10874 3.68751 5.20825 3.91784L5.87171 5.2077C5.97122 5.39197 6.13709 5.43803 6.26978 5.3459Z" fill="#FFCC00"/>
<path d="M16.4193 1.47582L15.4905 5.43753C15.4573 5.6218 15.4905 5.85213 15.6232 5.94426C16.1871 6.40493 16.751 6.95772 17.2486 7.60265C17.3813 7.78692 17.6135 7.74085 17.7462 7.55659L19.6371 3.91734C19.7366 3.73308 19.7034 3.41061 19.5707 3.27241C18.7414 2.39715 17.8126 1.70615 16.8506 1.15336C16.6847 1.10729 16.4857 1.24549 16.4193 1.47582Z" fill="#FFCC00"/>
<path d="M17.8802 8.47438C18.3114 9.11931 18.7095 9.76424 19.0412 10.5013C19.1407 10.7316 19.3398 10.7777 19.5056 10.6395L22.2589 7.87552C22.3916 7.73732 22.4248 7.46092 22.3253 7.23059C21.7282 6.07893 21.0316 5.0194 20.2686 4.09808C20.1359 3.91381 19.9037 3.95988 19.771 4.19021L17.8138 7.92159C17.7475 8.05979 17.7806 8.33618 17.8802 8.47438Z" fill="#FFCC00"/>
<path d="M3.44956 8.24715C4.04666 7.32582 4.74329 6.54269 5.50625 5.89776C5.67212 5.75956 5.70529 5.4371 5.60577 5.25283L5.04184 4.14724C4.94232 3.91691 4.71011 3.87084 4.54425 4.05511C3.78128 4.97643 3.08466 6.03596 2.48755 7.18762C2.38803 7.37189 2.42121 7.69435 2.5539 7.83255L3.01831 8.29321C3.151 8.47748 3.35004 8.43141 3.44956 8.24715Z" fill="#FFCC00"/>
<path d="M0.895598 12.6212L1.06146 12.7133C1.22732 12.8054 1.39319 12.6672 1.45953 12.4369C1.82443 11.2392 2.28885 10.1336 2.85278 9.16617C2.98547 8.98191 2.9523 8.65944 2.78643 8.52124L2.38836 8.15271C2.28885 7.96845 2.05664 8.06058 1.95712 8.29091C1.42636 9.44257 0.995116 10.7324 0.696563 12.0684C0.630217 12.2987 0.729735 12.5751 0.895598 12.6212Z" fill="#FFCC00"/>
<path d="M20.5005 14.9694C20.6332 15.7525 20.7327 16.5817 20.7991 17.4109C20.7991 17.6413 20.9649 17.8255 21.1308 17.8255H24.5144C24.7134 17.8255 24.8461 17.5952 24.8461 17.3649C24.8129 15.9368 24.6802 14.6009 24.4149 13.265C24.3817 12.9886 24.1827 12.8504 23.9836 12.9425L20.7327 14.4166C20.5668 14.5087 20.4673 14.7391 20.5005 14.9694Z" fill="#FFCC00"/>
<path d="M0.597106 17.8255C0.630278 16.3514 0.829314 14.9233 1.16104 13.5874C1.22738 13.3571 1.12787 13.0807 0.962004 12.9886L0.862486 12.9425C0.696624 12.8504 0.497588 12.9886 0.431243 13.265C0.165863 14.7391 0 16.2593 0 17.8255H0.597106Z" fill="#FFCC00"/>
</svg>
