<svg width="87" height="81" viewBox="0 0 87 81" fill="none" xmlns="http://www.w3.org/2000/svg">
<path d="M8.45448 0H78.5444C83.1984 0 87 3.80161 87 8.45558V38.7765C87 43.4206 83.1885 47.232 78.5444 47.232H69.6933C69.6933 56.0251 69.6933 64.8192 69.6933 73.6133C69.6933 77.3349 66.6553 80.3729 62.9326 80.3729H24.0663C20.3447 80.3729 17.3067 77.3349 17.3067 73.6133V47.232H8.45558C3.80161 47.232 0 43.4304 0 38.7765V8.45558C0 3.80928 3.80928 0 8.45558 0L8.45448 0ZM45.4342 52.2936C48.3539 51.5278 49.1789 48.2454 45.4342 47.1302C43.5531 46.59 40.238 46.0773 37.5078 44.1809C35.1129 42.5167 34.8741 39.1698 36.4561 36.7135C37.5987 34.9529 39.5543 34.1477 41.5647 33.8782V30.3384H45.4342V33.8946C47.1477 34.1302 48.5051 34.6867 49.501 35.5676C50.8704 36.7694 51.5858 38.37 51.6559 40.3804L47.2748 40.5305C47.0896 39.413 46.6919 38.6132 46.0817 38.1246C45.2863 37.4848 42.1453 36.8757 40.3826 38.1739C39.3922 38.9057 39.5313 40.0276 40.342 40.8383C41.2722 41.7685 46.9987 42.772 49.043 43.8489C51.2791 45.0343 52.2903 46.9998 52.2903 49.4933C52.2903 53.5458 49.1263 55.6953 45.4342 56.0897V59.6054H41.5647V56.0437C37.4169 55.4565 35.2016 52.9224 34.7086 48.7779L38.9682 48.355C39.2651 50.0049 40.089 52.2936 45.4342 52.2936ZM66.3519 65.1566C65.6485 65.4732 64.8685 65.6485 64.0479 65.6485H22.9488C22.1304 65.6485 21.3493 65.471 20.6459 65.1522V66.869C20.6459 68.5748 22.0384 69.9683 23.7453 69.9683H63.2525C64.9539 69.9683 66.3519 68.5704 66.3519 66.869V65.1566ZM20.6448 60.0053C20.6448 61.2739 21.6802 62.3092 22.9477 62.3092H64.0468C65.31 62.3092 66.3508 61.2684 66.3508 60.0053C66.3508 49.1197 66.3508 38.2353 66.3508 27.3497H20.6438C20.6438 38.2353 20.6438 49.1197 20.6438 60.0053H20.6448ZM66.3519 72.509C65.4316 73.0173 64.3744 73.3087 63.2525 73.3087H23.7453C22.6234 73.3087 21.5651 73.0173 20.6459 72.509V73.6144C20.6459 75.4933 22.1863 77.0336 24.0652 77.0336H62.9315C64.8115 77.0336 66.3519 75.4933 66.3519 73.6144V72.509ZM75.9523 18.8536V33.3874H69.6923V43.8917H78.5433C81.3611 43.8917 83.6596 41.5943 83.6596 38.7765V8.45558C83.6596 5.64655 81.3535 3.34038 78.5433 3.34038H8.45339C5.63669 3.34038 3.33819 5.63888 3.33819 8.45558V38.7765C3.33819 41.5855 5.64436 43.8917 8.45339 43.8917H17.3045V33.3874H11.0444V18.8536H75.9523ZM72.6119 22.1929H14.3837V30.047H17.3045V24.0093L69.6923 24.0082V30.047H72.6119V22.1929Z" fill="#FFCC00"/>
</svg>
