<svg width="22" height="22" viewBox="0 0 22 22" fill="none" xmlns="http://www.w3.org/2000/svg">
<path d="M1.5 19H10.5V21H6.5V22H15.5V21H11.5V19H20.5C21.3271 19 22 18.3271 22 17.5V13.5C22 13.1144 21.8497 12.766 21.6099 12.5C21.8497 12.234 22 11.8856 22 11.5V7.5C22 7.11444 21.8497 6.76599 21.6099 6.5C21.8497 6.23401 22 5.88556 22 5.5V1.5C22 0.672852 21.3271 0 20.5 0H1.5C0.672852 0 0 0.672852 0 1.5V5.5C0 5.88556 0.150269 6.23401 0.390137 6.5C0.150269 6.76599 0 7.11444 0 7.5V11.5C0 11.8856 0.150269 12.234 0.390137 12.5C0.150269 12.766 0 13.1144 0 13.5V17.5C0 18.3271 0.672852 19 1.5 19ZM21 17.5C21 17.7756 20.7759 18 20.5 18H1.5C1.22412 18 1 17.7756 1 17.5V13.5C1 13.2244 1.22412 13 1.5 13H20.5C20.7759 13 21 13.2244 21 13.5V17.5ZM1 11.5V7.5C1 7.22437 1.22412 7 1.5 7H20.5C20.7759 7 21 7.22437 21 7.5V11.5C21 11.7756 20.7759 12 20.5 12H1.5C1.22412 12 1 11.7756 1 11.5ZM1 1.5C1 1.22437 1.22412 1 1.5 1H20.5C20.7759 1 21 1.22437 21 1.5V5.5C21 5.77563 20.7759 6 20.5 6H1.5C1.22412 6 1 5.77563 1 5.5V1.5Z" fill="#FFCC00"/>
<path d="M3.5 3H2V4H3.5V3Z" fill="#FFCC00"/>
<path d="M6 3H4.5V4H6V3Z" fill="#FFCC00"/>
<path d="M20 3H9V4H20V3Z" fill="#FFCC00"/>
<path d="M3.5 9H2V10H3.5V9Z" fill="#FFCC00"/>
<path d="M6 9H4.5V10H6V9Z" fill="#FFCC00"/>
<path d="M20 9H9V10H20V9Z" fill="#FFCC00"/>
<path d="M3.5 15H2V16H3.5V15Z" fill="#FFCC00"/>
<path d="M6 15H4.5V16H6V15Z" fill="#FFCC00"/>
<path d="M20 15H9V16H20V15Z" fill="#FFCC00"/>
</svg>
