<svg width="89" height="77" viewBox="0 0 89 77" fill="none" xmlns="http://www.w3.org/2000/svg">
<path d="M8.47619 0C3.81704 0 0 3.81704 0 8.47619V68.869C0 72.9412 3.34449 76.2857 7.41667 76.2857H81.5833C85.6555 76.2857 89 72.9412 89 68.869V20.131C89 16.0588 85.6555 12.7143 81.5833 12.7143H76.2857V2.11905C76.2856 1.00951 75.2762 0.000105952 74.1667 0H8.47619ZM8.47619 4.2381H72.0476V12.7143H8.47619C6.09163 12.7143 4.2381 10.8608 4.2381 8.47619C4.2381 6.09163 6.09163 4.2381 8.47619 4.2381ZM4.2381 15.7935C5.48717 16.5209 6.93522 16.9524 8.47619 16.9524C32.341 16.9312 61.0716 16.9524 81.5833 16.9524C83.3809 16.9524 84.7619 18.3334 84.7619 20.131V30.7262H54.0357C51.1375 30.7262 48.7381 33.1256 48.7381 36.0238V52.9762C48.7381 55.8744 51.1375 58.2738 54.0357 58.2738H84.7619V68.869C84.7619 70.6666 83.3809 72.0476 81.5833 72.0476H7.41667C5.61908 72.0476 4.2381 70.6666 4.2381 68.869V15.7935ZM54.0357 34.9643H84.7619V54.0357H54.0357C53.4121 54.0357 52.9762 53.5998 52.9762 52.9762V36.0238C52.9762 35.4002 53.4121 34.9643 54.0357 34.9643ZM64.631 39.1693C61.7303 39.1693 59.3333 41.5662 59.3333 44.467C59.3333 47.3676 61.7303 49.7646 64.631 49.7646C67.5316 49.7646 69.9286 47.3676 69.9286 44.467C69.9286 41.5662 67.5316 39.1693 64.631 39.1693ZM64.631 43.4074C65.2412 43.4074 65.6905 43.8567 65.6905 44.467C65.6905 45.0771 65.2412 45.5265 64.631 45.5265C64.0207 45.5265 63.5714 45.0771 63.5714 44.467C63.5714 43.8567 64.0207 43.4074 64.631 43.4074Z" fill="#FFCC00"/>
</svg>
