<svg width="28" height="37" viewBox="0 0 28 37" fill="none" xmlns="http://www.w3.org/2000/svg">
<path d="M22.9453 17.123C24.9658 16.1151 26.2288 14.3394 25.9323 11.3832C25.5339 7.34197 21.9689 5.98898 17.4688 5.60503L17.4666 0.720446C17.4677 0.704808 17.4759 0.691327 17.4759 0.675149C17.4759 0.302523 17.1674 0.00107822 16.7866 0.00053896H14.6856C14.503 0.000681905 14.328 0.0717627 14.1989 0.19816C14.0699 0.324557 13.9974 0.495929 13.9974 0.67461H13.9814L13.9842 5.45889C13.0673 5.45889 12.1306 5.47669 11.2004 5.49556L11.1988 0.733927C11.2004 0.713436 11.2109 0.695641 11.2109 0.67461C11.2109 0.301984 10.9023 0.000539256 10.5216 0H8.42058C8.238 0.000142945 8.06295 0.0712237 7.93391 0.197621C7.80486 0.324018 7.73236 0.495389 7.73236 0.67407L7.73292 0.675688H7.71583L7.71694 5.60611C6.96205 5.62121 6.22094 5.63685 5.49801 5.63685L5.49746 5.61905H0.689318V5.62606C0.598775 5.62599 0.509106 5.64339 0.425442 5.67727C0.341777 5.71115 0.265759 5.76083 0.201736 5.82349C0.137712 5.88615 0.0869398 5.96055 0.052324 6.04243C0.0177082 6.12431 -7.22427e-05 6.21206 2.20599e-07 6.30067V8.57957C2.20599e-07 8.9522 0.308568 9.25418 0.689318 9.25418L0.692073 9.25364V9.26388C0.692073 9.26388 3.26641 9.21481 3.22343 9.25957C4.63512 9.26011 5.09522 10.062 5.22911 10.7538L5.23187 17.1403L5.23242 17.1645L5.23517 26.1092C5.17346 26.5438 4.91228 27.2378 3.92597 27.2395C3.9706 27.2777 1.39186 27.2389 1.39186 27.2389L1.39131 27.2422C1.3869 27.2422 1.38359 27.2395 1.37919 27.2395C1.04803 27.2395 0.784643 27.4724 0.717971 27.7771L0.689869 27.7755L0.0551017 30.5629L0.0699793 30.5656C0.0672242 30.5904 0.0551017 30.612 0.0551017 30.6379C0.0551017 30.9959 0.342731 31.2823 0.703093 31.3044L0.70144 31.3146L5.23793 31.313C6.08208 31.313 6.91301 31.3265 7.72851 31.3313L7.73236 36.3259H7.73402C7.73402 36.698 8.04259 37 8.42334 37H10.5243C10.707 36.9997 10.882 36.9285 11.0111 36.802C11.1401 36.6755 11.2126 36.5041 11.2126 36.3254H11.2137L11.2115 31.3917C12.1675 31.4106 13.0926 31.4176 13.9963 31.4155L13.9974 36.3259H13.999C13.9996 36.698 14.3076 37 14.6878 37H16.7888C16.9714 36.9997 17.1465 36.9285 17.2755 36.802C17.4046 36.6755 17.477 36.5041 17.477 36.3254V36.3248H17.4814L17.4803 31.3383C23.3404 31.0067 27.4421 29.5604 27.949 24.1738C28.3579 19.8376 26.2723 17.9028 22.9453 17.123ZM11.2831 9.50601C13.2508 9.50493 19.432 8.89018 19.4342 12.9098C19.4348 16.7644 13.253 16.3168 11.2853 16.3179L11.2831 9.50601ZM11.2892 27.2664L11.2875 19.7551C13.6502 19.7551 21.0586 19.0875 21.0603 23.5056C21.0636 27.742 13.6519 27.2626 11.2892 27.2664Z" fill="#FFCC00"/>
</svg>
