<svg width="86" height="86" viewBox="0 0 86 86" fill="none" xmlns="http://www.w3.org/2000/svg">
<path d="M32.2503 0C18.7802 0 7.81867 10.9616 7.81867 24.4316C7.81867 37.9017 18.7802 48.8632 32.2503 48.8632C45.7203 48.8632 56.6819 37.9017 56.6819 24.4316C56.6819 10.9616 45.7203 0 32.2503 0ZM32.2503 3.90906C43.6077 3.90906 52.7728 13.0742 52.7728 24.4316C52.7728 35.7891 43.6077 44.9542 32.2503 44.9542C20.8928 44.9542 11.7277 35.7891 11.7277 24.4316C11.7277 13.0742 20.8928 3.90906 32.2503 3.90906ZM66.4545 29.3179C65.3181 29.3277 64.3962 30.4291 64.4084 31.3641C64.4564 32.3875 65.431 33.2752 66.4545 33.227H79.3117L48.8638 63.6748L36.8618 51.6729C36.6647 51.3662 36.3858 51.1209 36.0566 50.9644C35.7274 50.8079 35.361 50.7465 34.9988 50.7873C34.5612 50.8346 34.1522 51.0282 33.8383 51.3369L0.611345 82.6093C0.424853 82.7858 0.274944 82.9973 0.170178 83.2317C0.0654108 83.4661 0.00783798 83.7188 0.000746051 83.9755C-0.00634588 84.2321 0.037182 84.4876 0.128845 84.7274C0.220507 84.9672 0.358509 85.1867 0.534971 85.3732C0.711434 85.5596 0.922901 85.7097 1.1573 85.8144C1.3917 85.9192 1.64443 85.9767 1.90108 85.9838C2.15773 85.9909 2.41326 85.9474 2.65308 85.8557C2.89291 85.764 3.11233 85.6261 3.29882 85.4496L35.1515 55.4902L47.2146 67.5535C47.3767 67.795 47.5907 67.9973 47.8409 68.1457C48.0911 68.294 48.3712 68.3846 48.6609 68.411C48.9506 68.4373 49.2425 68.3987 49.5153 68.2979C49.7882 68.1971 50.0351 68.0366 50.2381 67.8282L82.0908 35.9756V48.8632C82.0762 49.8958 83.0126 50.8482 84.0453 50.8482C85.078 50.8482 86.0144 49.8958 85.9998 48.8632V31.2725C85.9997 30.2491 85.0687 29.318 84.0453 29.3179H66.4545Z" fill="#FFCC00"/>
</svg>
