<svg width="37" height="37" viewBox="0 0 37 37" fill="none" xmlns="http://www.w3.org/2000/svg">
<path d="M1.94737 0C0.868521 0 0 0.868526 0 1.94737V9.73684C0 10.8157 0.868521 11.6842 1.94737 11.6842H35.0526C36.1315 11.6842 37 10.8157 37 9.73684V1.94737C37 0.868526 36.1315 0 35.0526 0H1.94737ZM5.8421 4.38158C6.64873 4.38158 7.30263 5.03546 7.30263 5.84211C7.30263 6.64875 6.64873 7.30263 5.8421 7.30263C5.03548 7.30263 4.38158 6.64875 4.38158 5.84211C4.38158 5.03546 5.03548 4.38158 5.8421 4.38158ZM13.1447 4.38158C13.9514 4.38158 14.6053 5.03546 14.6053 5.84211C14.6053 6.64875 13.9514 7.30263 13.1447 7.30263C12.3381 7.30263 11.6842 6.64875 11.6842 5.84211C11.6842 5.03546 12.3381 4.38158 13.1447 4.38158ZM22.3947 4.86842H30.1842C30.722 4.86842 31.1579 5.30434 31.1579 5.84211C31.1579 6.37987 30.722 6.81579 30.1842 6.81579H22.3947C21.857 6.81579 21.4211 6.37987 21.4211 5.84211C21.4211 5.30434 21.857 4.86842 22.3947 4.86842Z" fill="#FFCC00"/>
<path d="M1.94737 12.6577C0.868521 12.6577 0 13.5262 0 14.6051V22.3946C0 23.4734 0.868521 24.3419 1.94737 24.3419H35.0526C36.1315 24.3419 37 23.4734 37 22.3946V14.6051C37 13.5262 36.1315 12.6577 35.0526 12.6577H1.94737ZM5.8421 17.0393C6.64873 17.0393 7.30263 17.6932 7.30263 18.4998C7.30263 19.3065 6.64873 19.9603 5.8421 19.9603C5.03548 19.9603 4.38158 19.3065 4.38158 18.4998C4.38158 17.6932 5.03548 17.0393 5.8421 17.0393ZM13.1447 17.0393C13.9514 17.0393 14.6053 17.6932 14.6053 18.4998C14.6053 19.3065 13.9514 19.9603 13.1447 19.9603C12.3381 19.9603 11.6842 19.3065 11.6842 18.4998C11.6842 17.6932 12.3381 17.0393 13.1447 17.0393ZM22.3947 17.5261H30.1842C30.722 17.5261 31.1579 17.9621 31.1579 18.4998C31.1579 19.0376 30.722 19.4735 30.1842 19.4735H22.3947C21.857 19.4735 21.4211 19.0376 21.4211 18.4998C21.4211 17.9621 21.857 17.5261 22.3947 17.5261Z" fill="#FFCC00"/>
<path d="M1.94737 25.3159C0.868521 25.3159 0 26.1844 0 27.2633V35.0528C0 36.1316 0.868521 37.0001 1.94737 37.0001H35.0526C36.1315 37.0001 37 36.1316 37 35.0528V27.2633C37 26.1844 36.1315 25.3159 35.0526 25.3159H1.94737ZM5.8421 29.6975C6.64873 29.6975 7.30263 30.3514 7.30263 31.158C7.30263 31.9647 6.64873 32.6185 5.8421 32.6185C5.03548 32.6185 4.38158 31.9647 4.38158 31.158C4.38158 30.3514 5.03548 29.6975 5.8421 29.6975ZM13.1447 29.6975C13.9514 29.6975 14.6053 30.3514 14.6053 31.158C14.6053 31.9647 13.9514 32.6185 13.1447 32.6185C12.3381 32.6185 11.6842 31.9647 11.6842 31.158C11.6842 30.3514 12.3381 29.6975 13.1447 29.6975ZM22.3947 30.1843H30.1842C30.722 30.1843 31.1579 30.6203 31.1579 31.158C31.1579 31.6958 30.722 32.1317 30.1842 32.1317H22.3947C21.857 32.1317 21.4211 31.6958 21.4211 31.158C21.4211 30.6203 21.857 30.1843 22.3947 30.1843Z" fill="#FFCC00"/>
</svg>
