<svg width="43" height="43" viewBox="0 0 43 43" fill="none" xmlns="http://www.w3.org/2000/svg">
<path fill-rule="evenodd" clip-rule="evenodd" d="M23.2859 19.3122V19.2493C23.2731 19.2704 23.2553 19.2915 23.2441 19.3122H23.2859Z" fill="white"/>
<path fill-rule="evenodd" clip-rule="evenodd" d="M0 0V43H43V0H0ZM13.3746 35.7233H6.99492V16.5296H13.3746V35.7233ZM10.1848 13.9099H10.1426C8.00254 13.9099 6.61538 12.4355 6.61538 10.5926C6.61538 8.70934 8.04308 7.27673 10.2265 7.27673C12.4105 7.27673 13.7525 8.70934 13.7943 10.5926C13.7943 12.4355 12.4105 13.9099 10.1848 13.9099ZM36.3846 35.7233H30.0032V25.4546C30.0032 22.8754 29.0812 21.1149 26.7716 21.1149C25.0078 21.1149 23.9596 22.3003 23.4978 23.4485C23.33 23.8587 23.2862 24.4288 23.2862 25.004V35.7234H16.9035C16.9035 35.7234 16.9891 18.3303 16.9035 16.5297H23.2862V19.2494C24.1342 17.9446 25.6475 16.0791 29.0374 16.0791C33.2369 16.0791 36.3846 18.8216 36.3846 24.7167V35.7233Z" fill="white"/>
</svg>
